<svg width="15" height="15" viewBox="0 0 15 15" fill="none" xmlns="http://www.w3.org/2000/svg">
<path d="M1.66016 11.362C3.01969 11.649 4.43544 11.4928 5.69972 10.9163C6.964 10.3398 8.01026 9.37338 8.68504 8.15871C9.35982 6.94404 9.62759 5.54511 9.44908 4.16711C9.27057 2.78911 8.65517 1.50458 7.69316 0.501953C8.89519 0.535144 10.0684 0.877429 11.0997 1.49582C12.131 2.1142 12.9856 2.98784 13.5812 4.0325C14.1767 5.07716 14.4931 6.25763 14.4998 7.46011C14.5066 8.66258 14.2034 9.84652 13.6196 10.8978C13.0358 11.949 12.191 12.8322 11.1667 13.4621C10.1424 14.092 8.97306 14.4474 7.77147 14.494C6.56988 14.5407 5.37654 14.277 4.30647 13.7284C3.23641 13.1798 2.3257 12.3648 1.66216 11.362H1.66016Z" stroke="black" stroke-linejoin="round"/>
</svg>
