<svg width="17" height="15" viewBox="0 0 17 15" fill="none" xmlns="http://www.w3.org/2000/svg">
<g clip-path="url(#clip0_84_187)">
<path d="M8.62259 7.72472H8.10609C8.10597 7.78735 8.11922 7.84939 8.1451 7.90729C8.17098 7.9652 8.20897 8.01782 8.25691 8.06217L8.62259 7.72472ZM8.62259 13.9208C6.84178 13.9208 5.1339 13.268 3.87467 12.106C2.61544 10.944 1.90801 9.36801 1.90801 7.72472H0.875C0.875 9.62083 1.69126 11.4393 3.14422 12.78C4.59717 14.1208 6.5678 14.874 8.62259 14.874V13.9208ZM15.3372 7.72472C15.3372 8.5384 15.1635 9.3441 14.8261 10.0958C14.4886 10.8476 13.994 11.5306 13.3705 12.106C12.747 12.6813 12.0068 13.1377 11.1922 13.4491C10.3775 13.7605 9.50436 13.9208 8.62259 13.9208V14.874C10.6774 14.874 12.648 14.1208 14.101 12.78C15.5539 11.4393 16.3702 9.62083 16.3702 7.72472H15.3372ZM8.62259 1.52868C9.50436 1.52868 10.3775 1.68894 11.1922 2.00032C12.0068 2.3117 12.747 2.7681 13.3705 3.34346C13.994 3.91881 14.4886 4.60186 14.8261 5.3536C15.1635 6.10534 15.3372 6.91104 15.3372 7.72472H16.3702C16.3702 5.82861 15.5539 4.01017 14.101 2.66942C12.648 1.32867 10.6774 0.575439 8.62259 0.575439V1.52868ZM8.62259 0.575439C6.5678 0.575439 4.59717 1.32867 3.14422 2.66942C1.69126 4.01017 0.875 5.82861 0.875 7.72472H1.90801C1.90801 6.08143 2.61544 4.50544 3.87467 3.34346C5.1339 2.18147 6.84178 1.52868 8.62259 1.52868V0.575439ZM8.10609 3.43515V7.72472H9.1391V3.43515H8.10609ZM8.25691 8.06217L11.3559 10.9219L12.0873 10.247L8.98828 7.38727L8.25691 8.06217Z" fill="black"/>
</g>
<defs>
<clipPath id="clip0_84_187">
<rect width="15.4952" height="14.2986" fill="white" transform="translate(0.875 0.575439)"/>
</clipPath>
</defs>
</svg>
