<svg width="32" height="29" viewBox="0 0 32 29" fill="none" xmlns="http://www.w3.org/2000/svg">
<g clip-path="url(#clip0_84_287)">
<path d="M1.85504 14.6043L0.896402 14.2586C0.797553 14.4805 0.797553 14.7281 0.896402 14.95L1.85504 14.6043ZM30.7794 14.6043L31.738 14.95C31.8369 14.7281 31.8369 14.4805 31.738 14.2586L30.7794 14.6043ZM16.3172 22.9673C11.5364 22.9673 8.17914 20.8264 5.98089 18.6297C4.7797 17.4211 3.77208 16.0674 2.98722 14.608C2.92972 14.4975 2.87462 14.386 2.82194 14.2735L2.81367 14.2605L1.85504 14.6043L0.896402 14.95V14.9537L0.9026 14.9611C0.919803 15.0004 0.937711 15.0394 0.956317 15.0782L1.11747 15.3997C1.98831 17.0228 3.10799 18.5279 4.44377 19.8712C6.89614 22.3206 10.7679 24.8258 16.3172 24.8258V22.9673ZM1.85504 14.6043L2.81367 14.95L2.82194 14.9351C2.87235 14.8218 2.92748 14.7102 2.98722 14.6006C3.77208 13.1412 4.7797 11.7875 5.98089 10.5789C8.17707 8.3822 11.5364 6.24127 16.3172 6.24127V4.38281C10.7679 4.38281 6.89407 6.88801 4.44377 9.33745C3.10797 10.6806 1.98829 12.1858 1.11747 13.8089C1.04239 13.9537 0.97075 14.0999 0.9026 14.2475L0.898468 14.2549V14.2568H0.894336L1.85504 14.6043ZM16.3172 6.24127C21.098 6.24127 24.4553 8.3822 26.6535 10.5789C27.8547 11.7876 28.8623 13.1412 29.6472 14.6006C29.7049 14.711 29.76 14.8226 29.8125 14.9351L29.8207 14.9481L30.7794 14.6043L31.738 14.2586V14.2549L31.7318 14.2475C31.7162 14.2076 31.6983 14.1686 31.6781 14.1304C31.435 13.6403 31.1661 13.1609 30.8724 12.6938C30.1149 11.4917 29.2158 10.3665 28.1907 9.33745C25.7383 6.88801 21.8666 4.38281 16.3172 4.38281V6.24127ZM30.7794 14.6043C30.4594 14.4901 30.1398 14.3749 29.8207 14.2586L29.8146 14.2735L29.7836 14.3385L29.6472 14.608C28.8623 16.0674 27.8547 17.421 26.6535 18.6297C24.4573 20.8264 21.098 22.9673 16.3172 22.9673V24.8258C21.8666 24.8258 25.7403 22.3206 28.1907 19.873C29.5266 18.5293 30.6463 17.0235 31.517 15.3997C31.592 15.2549 31.6636 15.1087 31.7318 14.9611L31.736 14.9537V14.9518L31.738 14.95L30.7794 14.6043ZM16.3172 17.392C15.4953 17.392 14.707 17.0983 14.1259 16.5755C13.5447 16.0527 13.2182 15.3436 13.2182 14.6043H11.1521C11.1521 15.8365 11.6963 17.0183 12.665 17.8896C13.6336 18.7609 14.9474 19.2504 16.3172 19.2504V17.392ZM19.4162 14.6043C19.4162 15.3436 19.0897 16.0527 18.5086 16.5755C17.9274 17.0983 17.1391 17.392 16.3172 17.392V19.2504C17.6871 19.2504 19.0008 18.7609 19.9695 17.8896C20.9381 17.0183 21.4823 15.8365 21.4823 14.6043H19.4162ZM16.3172 11.8166C17.1391 11.8166 17.9274 12.1103 18.5086 12.6331C19.0897 13.1559 19.4162 13.865 19.4162 14.6043H21.4823C21.4823 13.3721 20.9381 12.1903 19.9695 11.319C19.0008 10.4477 17.6871 9.95817 16.3172 9.95817V11.8166ZM16.3172 9.95817C14.9474 9.95817 13.6336 10.4477 12.665 11.319C11.6963 12.1903 11.1521 13.3721 11.1521 14.6043H13.2182C13.2182 13.865 13.5447 13.1559 14.1259 12.6331C14.707 12.1103 15.4953 11.8166 16.3172 11.8166V9.95817Z" fill="#9F9F9F"/>
</g>
<defs>
<clipPath id="clip0_84_287">
<rect width="30.9904" height="27.8768" fill="white" transform="translate(0.822266 0.666016)"/>
</clipPath>
</defs>
</svg>
