<svg width="32" height="29" viewBox="0 0 32 29" fill="none" xmlns="http://www.w3.org/2000/svg">
<g clip-path="url(#clip0_84_182)">
<path d="M1.73687 14.6692L0.778238 14.3146C0.679389 14.5422 0.679389 14.7962 0.778238 15.0238L1.73687 14.6692ZM30.6612 14.6692L31.6199 15.0238C31.7187 14.7962 31.7187 14.5422 31.6199 14.3146L30.6612 14.6692ZM16.199 23.2483C11.4183 23.2483 8.06098 21.0521 5.86272 18.7986C4.66154 17.5588 3.65392 16.1701 2.86906 14.673C2.81156 14.5596 2.75645 14.4452 2.70377 14.3299L2.69551 14.3165L1.73687 14.6692L0.778238 15.0238V15.0276L0.784436 15.0352C0.801639 15.0755 0.819547 15.1156 0.838153 15.1554L0.999303 15.4852C1.87015 17.1502 2.98982 18.6942 4.3256 20.0722C6.77797 22.5849 10.6497 25.1548 16.199 25.1548V23.2483ZM1.73687 14.6692L2.69551 15.0238L2.70377 15.0086C2.75419 14.8923 2.80932 14.7778 2.86906 14.6654C3.65392 13.1683 4.66154 11.7797 5.86272 10.5398C8.05891 8.28633 11.4183 6.09007 16.199 6.09007V4.18359C10.6497 4.18359 6.77591 6.75352 4.3256 9.26625C2.9898 10.6442 1.87012 12.1882 0.999303 13.8532C0.924224 14.0018 0.852586 14.1518 0.784436 14.3032L0.780304 14.3108V14.3127H0.776172L1.73687 14.6692ZM16.199 6.09007C20.9798 6.09007 24.3371 8.28633 26.5354 10.5398C27.7365 11.7797 28.7441 13.1683 29.529 14.6654C29.5867 14.7787 29.6418 14.8931 29.6943 15.0086L29.7026 15.0219L30.6612 14.6692L31.6199 14.3146V14.3108L31.6137 14.3032C31.598 14.2623 31.5801 14.2222 31.5599 14.1831C31.3169 13.6803 31.048 13.1885 30.7542 12.7093C29.9967 11.4762 29.0976 10.3219 28.0725 9.26625C25.6201 6.75352 21.7484 4.18359 16.199 4.18359V6.09007ZM30.6612 14.6692C30.3412 14.5521 30.0217 14.4339 29.7026 14.3146L29.6964 14.3299L29.6654 14.3966L29.529 14.673C28.7441 16.1701 27.7365 17.5587 26.5354 18.7986C24.3392 21.0521 20.9798 23.2483 16.199 23.2483V25.1548C21.7484 25.1548 25.6222 22.5849 28.0725 20.0741C29.4085 18.6956 30.5282 17.1509 31.3988 15.4852C31.4738 15.3366 31.5454 15.1866 31.6137 15.0352L31.6178 15.0276V15.0257L31.6199 15.0238L30.6612 14.6692ZM16.199 17.5289C15.3771 17.5289 14.5889 17.2276 14.0077 16.6913C13.4265 16.155 13.1 15.4276 13.1 14.6692H11.034C11.034 15.9333 11.5782 17.1456 12.5468 18.0394C13.5154 18.9332 14.8292 19.4354 16.199 19.4354V17.5289ZM19.2981 14.6692C19.2981 15.4276 18.9716 16.155 18.3904 16.6913C17.8092 17.2276 17.021 17.5289 16.199 17.5289V19.4354C17.5689 19.4354 18.8827 18.9332 19.8513 18.0394C20.8199 17.1456 21.3641 15.9333 21.3641 14.6692H19.2981ZM16.199 11.8095C17.021 11.8095 17.8092 12.1108 18.3904 12.6471C18.9716 13.1834 19.2981 13.9108 19.2981 14.6692H21.3641C21.3641 13.4051 20.8199 12.1928 19.8513 11.299C18.8827 10.4052 17.5689 9.90302 16.199 9.90302V11.8095ZM16.199 9.90302C14.8292 9.90302 13.5154 10.4052 12.5468 11.299C11.5782 12.1928 11.034 13.4051 11.034 14.6692H13.1C13.1 13.9108 13.4265 13.1834 14.0077 12.6471C14.5889 12.1108 15.3771 11.8095 16.199 11.8095V9.90302Z" fill="black"/>
</g>
<defs>
<clipPath id="clip0_84_182">
<rect width="30.9904" height="28.5971" fill="white" transform="translate(0.704102 0.370605)"/>
</clipPath>
</defs>
</svg>
