<svg width="30" height="31" viewBox="0 0 30 31" fill="none" xmlns="http://www.w3.org/2000/svg">
<g clip-path="url(#clip0_259_199)">
<path d="M25.6199 13.95L16.4699 4.52596C15.6299 3.62696 15.4199 4.18496 15.4199 4.61896V8.95896L8.60989 14.167H4.49989C3.32989 14.167 4.25989 15.469 4.07989 15.252L9.23989 20.553L4.91989 25.048C4.67989 25.296 4.67989 25.699 4.91989 25.947C5.15989 26.195 5.54989 26.195 5.78989 25.947L10.1099 21.483L15.2399 26.815C15.0899 26.66 16.3199 27.497 16.3199 26.381V22.103L21.3599 15.066H25.1699C25.7999 15.035 26.6399 15.035 25.6199 13.95ZM5.96989 15.376H8.63989L15.1499 22.103V24.862L5.96989 15.376ZM15.7199 20.863L9.80989 14.756L15.8399 10.23L20.1599 14.756L15.7199 20.863ZM21.0599 13.826L16.6199 9.23796V6.47896L23.7299 13.826H21.0599Z" fill="#9F9F9F"/>
<path d="M241.2 -331.7V190.34H-294V-331.7H241.2ZM243.6 -334.18H-296.4V192.82H243.6V-334.18Z" fill="#0000FF"/>
</g>
<defs>
<clipPath id="clip0_259_199">
<rect width="30" height="31" fill="white"/>
</clipPath>
</defs>
</svg>
