<svg width="32" height="29" viewBox="0 0 32 29" fill="none" xmlns="http://www.w3.org/2000/svg">
<g clip-path="url(#clip0_84_283)">
<path d="M1.94922 7.24108V23.9672C1.94922 24.46 2.16689 24.9327 2.55434 25.2813C2.9418 25.6298 3.4673 25.8256 4.01524 25.8256H28.8075C29.3555 25.8256 29.881 25.6298 30.2684 25.2813C30.6559 24.9327 30.8736 24.46 30.8736 23.9672V9.09953C30.8736 8.60664 30.6559 8.13393 30.2684 7.7854C29.881 7.43688 29.3555 7.24108 28.8075 7.24108H7.11428M1.94922 7.24108V5.38262C1.94922 4.88973 2.16689 4.41703 2.55434 4.0685C2.9418 3.71997 3.4673 3.52417 4.01524 3.52417H20.5434C21.0914 3.52417 21.6169 3.71997 22.0043 4.0685C22.3918 4.41703 22.6095 4.88973 22.6095 5.38262V7.24108H7.11428M1.94922 7.24108H7.11428M19.5104 18.3918H25.7085" stroke="#9F9F9F" stroke-width="2"/>
</g>
<defs>
<clipPath id="clip0_84_283">
<rect width="30.9904" height="27.8768" fill="white" transform="translate(0.916016 0.736572)"/>
</clipPath>
</defs>
</svg>
