<svg width="30" height="30" viewBox="0 0 30 30" fill="none" xmlns="http://www.w3.org/2000/svg">
<path d="M15 10.9375C12.7564 10.9375 10.9375 12.7564 10.9375 15C10.9375 17.2436 12.7564 19.0625 15 19.0625C17.2436 19.0625 19.0625 17.2436 19.0625 15C19.0625 12.7564 17.2436 10.9375 15 10.9375Z" fill="#EE4D4D"/>
<path fill-rule="evenodd" clip-rule="evenodd" d="M10.7922 9.32784C11.1634 9.68876 11.1717 10.2823 10.8108 10.6535C8.47973 13.0511 8.47973 16.9489 10.8108 19.3465C11.1717 19.7177 11.1634 20.3112 10.7922 20.6721C10.4209 21.0331 9.82742 21.0247 9.46648 20.6535C6.42784 17.5282 6.42784 12.4718 9.46648 9.34647C9.82742 8.97525 10.4209 8.9669 10.7922 9.32784ZM19.2079 9.32784C19.579 8.9669 20.1726 8.97525 20.5335 9.34647C23.5721 12.4718 23.5721 17.5282 20.5335 20.6535C20.1726 21.0247 19.579 21.0331 19.2079 20.6721C18.8366 20.3112 18.8283 19.7177 19.1893 19.3465C21.5203 16.9489 21.5203 13.0511 19.1893 10.6535C18.8283 10.2823 18.8366 9.68876 19.2079 9.32784Z" fill="#EE4D4D"/>
<path fill-rule="evenodd" clip-rule="evenodd" d="M8.15048 6.83766C8.51627 7.2041 8.51576 7.79769 8.14933 8.16349C4.36689 11.9394 4.36689 18.0606 8.14933 21.8365C8.51576 22.2024 8.51627 22.7959 8.15048 23.1624C7.78468 23.5287 7.19109 23.5293 6.82465 23.1635C2.30845 18.6551 2.30845 11.3449 6.82465 6.83651C7.19109 6.47071 7.78468 6.47123 8.15048 6.83766ZM21.8495 6.83766C22.2154 6.47123 22.8089 6.47071 23.1754 6.83651C27.6915 11.3449 27.6915 18.6551 23.1754 23.1635C22.8089 23.5293 22.2154 23.5287 21.8495 23.1624C21.4838 22.7959 21.4842 22.2024 21.8506 21.8365C25.6331 18.0606 25.6331 11.9394 21.8506 8.16349C21.4842 7.79769 21.4838 7.2041 21.8495 6.83766Z" fill="#EE4D4D"/>
</svg>
