<svg width="32" height="29" viewBox="0 0 32 29" fill="none" xmlns="http://www.w3.org/2000/svg">
<rect width="32" height="29" fill="#1E1E1E"/>
<g id="Frame 7" clip-path="url(#clip0_0_1)">
<rect width="1920" height="1211" transform="translate(-273 -778)" fill="white"/>
<g id="Group 10">
<path id="Rectangle 10" d="M-57.5 -518.5H1443.5V540.5H-57.5V-518.5Z" fill="#FDFDFD" stroke="#BDB9B9"/>
<g id="Rows">
<g id="ROW 5">
<g id="Frame" clip-path="url(#clip1_0_1)">
<path id="Vector" d="M8.1133 22.0936H9.14632V21.5045L8.57609 21.2415L8.1133 22.0936ZM24.6415 22.0936L24.1787 21.2415L23.6085 21.5045V22.0936H24.6415ZM16.3774 18.2807L17.1088 17.6058C17.0128 17.517 16.8988 17.4466 16.7733 17.3985C16.6478 17.3505 16.5133 17.3258 16.3774 17.3258C16.2415 17.3258 16.107 17.3505 15.9815 17.3985C15.856 17.4466 15.742 17.517 15.646 17.6058L16.3774 18.2807ZM5.01427 19.009V12.5613H2.94824V19.009H5.01427ZM27.7405 12.5613V19.009H29.8066V12.5613H27.7405ZM8.57609 21.2415L5.58449 19.8612L4.66098 21.5675L7.65051 22.9458L8.57609 21.2415ZM27.1703 19.8612L24.1787 21.2415L25.1043 22.9458L28.0938 21.5675L27.1703 19.8612ZM9.14632 24.0001V22.0936H7.08029V24.0001H9.14632ZM23.6085 22.0936V24.0001H25.6745V22.0936H23.6085ZM20.5095 26.8598H12.2454V28.7663H20.5095V26.8598ZM23.6085 24.0001C23.6085 24.7586 23.282 25.4859 22.7008 26.0222C22.1196 26.5585 21.3314 26.8598 20.5095 26.8598V28.7663C21.1877 28.7663 21.8594 28.643 22.486 28.4035C23.1127 28.164 23.6821 27.8129 24.1617 27.3703C24.6413 26.9277 25.0218 26.4023 25.2813 25.8241C25.5409 25.2458 25.6745 24.626 25.6745 24.0001H23.6085ZM27.7405 19.009C27.7405 19.1859 27.6872 19.3592 27.5865 19.5097C27.4858 19.6602 27.3417 19.7819 27.1703 19.8612L28.0938 21.5675C28.6086 21.3299 29.0416 20.9646 29.3441 20.5127C29.6466 20.0608 29.8067 19.5401 29.8066 19.009H27.7405ZM16.3774 2.07566C19.3911 2.07566 22.2814 3.1804 24.4124 5.14683C26.5434 7.11326 27.7405 9.78032 27.7405 12.5613H29.8066C29.8066 10.9339 29.4592 9.32251 28.7843 7.81903C28.1095 6.31555 27.1203 4.94946 25.8733 3.79875C24.6262 2.64804 23.1458 1.73524 21.5165 1.11248C19.8872 0.48972 18.1409 0.169189 16.3774 0.169189V2.07566ZM7.08029 24.0001C7.08029 25.2642 7.62447 26.4765 8.5931 27.3703C9.56174 28.2642 10.8755 28.7663 12.2454 28.7663V26.8598C11.4234 26.8598 10.6352 26.5585 10.054 26.0222C9.47282 25.4859 9.14632 24.7586 9.14632 24.0001H7.08029ZM5.01427 12.5613C5.01427 9.78032 6.21145 7.11326 8.34245 5.14683C10.4735 3.1804 13.3637 2.07566 16.3774 2.07566V0.169189C12.8158 0.169189 9.40001 1.47478 6.88155 3.79875C4.3631 6.12271 2.94824 9.27469 2.94824 12.5613H5.01427ZM2.94824 19.009C2.94826 19.5403 3.10872 20.0612 3.41161 20.5131C3.7145 20.965 4.14785 21.3301 4.66304 21.5675L5.58449 19.8612C5.41312 19.7819 5.26902 19.6602 5.16832 19.5097C5.06761 19.3592 5.01427 19.1859 5.01427 19.009H2.94824ZM10.1793 15.421C9.90536 15.421 9.64261 15.3206 9.44888 15.1418C9.25515 14.963 9.14632 14.7206 9.14632 14.4677H7.08029C7.08029 15.2262 7.4068 15.9536 7.98798 16.4899C8.56916 17.0262 9.35741 17.3275 10.1793 17.3275V15.421ZM11.2123 14.4677C11.2123 14.7206 11.1035 14.963 10.9098 15.1418C10.7161 15.3206 10.4533 15.421 10.1793 15.421V17.3275C11.0012 17.3275 11.7895 17.0262 12.3707 16.4899C12.9519 15.9536 13.2784 15.2262 13.2784 14.4677H11.2123ZM10.1793 13.5145C10.4533 13.5145 10.7161 13.6149 10.9098 13.7937C11.1035 13.9725 11.2123 14.2149 11.2123 14.4677H13.2784C13.2784 13.7093 12.9519 12.9819 12.3707 12.4456C11.7895 11.9093 11.0012 11.608 10.1793 11.608V13.5145ZM10.1793 11.608C9.35741 11.608 8.56916 11.9093 7.98798 12.4456C7.4068 12.9819 7.08029 13.7093 7.08029 14.4677H9.14632C9.14632 14.2149 9.25515 13.9725 9.44888 13.7937C9.64261 13.6149 9.90536 13.5145 10.1793 13.5145V11.608ZM22.5755 15.421C22.3015 15.421 22.0388 15.3206 21.845 15.1418C21.6513 14.963 21.5425 14.7206 21.5425 14.4677H19.4764C19.4764 15.2262 19.8029 15.9536 20.3841 16.4899C20.9653 17.0262 21.7536 17.3275 22.5755 17.3275V15.421ZM23.6085 14.4677C23.6085 14.7206 23.4997 14.963 23.3059 15.1418C23.1122 15.3206 22.8494 15.421 22.5755 15.421V17.3275C23.3974 17.3275 24.1856 17.0262 24.7668 16.4899C25.348 15.9536 25.6745 15.2262 25.6745 14.4677H23.6085ZM22.5755 13.5145C22.8494 13.5145 23.1122 13.6149 23.3059 13.7937C23.4997 13.9725 23.6085 14.2149 23.6085 14.4677H25.6745C25.6745 13.7093 25.348 12.9819 24.7668 12.4456C24.1856 11.9093 23.3974 11.608 22.5755 11.608V13.5145ZM22.5755 11.608C21.7536 11.608 20.9653 11.9093 20.3841 12.4456C19.8029 12.9819 19.4764 13.7093 19.4764 14.4677H21.5425C21.5425 14.2149 21.6513 13.9725 21.845 13.7937C22.0388 13.6149 22.3015 13.5145 22.5755 13.5145V11.608ZM15.0428 20.8621L17.1088 18.9556L15.646 17.6058L13.58 19.5123L15.0428 20.8621ZM15.646 18.9556L17.7121 20.8621L19.1748 19.5123L17.1088 17.6058L15.646 18.9556Z" fill="#412C2C"/>
</g>
</g>
</g>
</g>
</g>
<defs>
<clipPath id="clip0_0_1">
<rect width="1920" height="1211" fill="white" transform="translate(-273 -778)"/>
</clipPath>
<clipPath id="clip1_0_1">
<rect width="30.9904" height="28.5971" fill="white" transform="translate(0.881836 0.169189)"/>
</clipPath>
</defs>
</svg>
