<svg width="32" height="29" viewBox="0 0 32 29" fill="none" xmlns="http://www.w3.org/2000/svg">
<g clip-path="url(#clip0_84_258)">
<path d="M8.1133 22.0033H9.14632V21.4142L8.57609 21.1511L8.1133 22.0033ZM24.6415 22.0033L24.1787 21.1511L23.6085 21.4142V22.0033H24.6415ZM16.3774 18.1904L17.1088 17.5155C17.0128 17.4267 16.8988 17.3563 16.7733 17.3082C16.6478 17.2602 16.5133 17.2354 16.3774 17.2354C16.2415 17.2354 16.107 17.2602 15.9815 17.3082C15.856 17.3563 15.742 17.4267 15.646 17.5155L16.3774 18.1904ZM5.01427 18.9186V12.4709H2.94824V18.9186H5.01427ZM27.7405 12.4709V18.9186H29.8066V12.4709H27.7405ZM8.57609 21.1511L5.58449 19.7708L4.66098 21.4771L7.65051 22.8555L8.57609 21.1511ZM27.1703 19.7708L24.1787 21.1511L25.1043 22.8555L28.0938 21.4771L27.1703 19.7708ZM9.14632 23.9098V22.0033H7.08029V23.9098H9.14632ZM23.6085 22.0033V23.9098H25.6745V22.0033H23.6085ZM20.5095 26.7695H12.2454V28.676H20.5095V26.7695ZM23.6085 23.9098C23.6085 24.6682 23.282 25.3956 22.7008 25.9319C22.1196 26.4682 21.3314 26.7695 20.5095 26.7695V28.676C21.1877 28.676 21.8594 28.5527 22.486 28.3132C23.1127 28.0737 23.6821 27.7226 24.1617 27.28C24.6413 26.8374 25.0218 26.312 25.2813 25.7337C25.5409 25.1555 25.6745 24.5357 25.6745 23.9098H23.6085ZM27.7405 18.9186C27.7405 19.0955 27.6872 19.2689 27.5865 19.4194C27.4858 19.5699 27.3417 19.6916 27.1703 19.7708L28.0938 21.4771C28.6086 21.2395 29.0416 20.8743 29.3441 20.4224C29.6466 19.9705 29.8067 19.4498 29.8066 18.9186H27.7405ZM16.3774 1.98533C19.3911 1.98533 22.2814 3.09006 24.4124 5.0565C26.5434 7.02293 27.7405 9.68999 27.7405 12.4709H29.8066C29.8066 10.8436 29.4592 9.23217 28.7843 7.7287C28.1095 6.22522 27.1203 4.85913 25.8733 3.70842C24.6262 2.5577 23.1458 1.64491 21.5165 1.02215C19.8872 0.399388 18.1409 0.0788574 16.3774 0.0788574V1.98533ZM7.08029 23.9098C7.08029 25.1739 7.62447 26.3862 8.5931 27.28C9.56174 28.1738 10.8755 28.676 12.2454 28.676V26.7695C11.4234 26.7695 10.6352 26.4682 10.054 25.9319C9.47282 25.3956 9.14632 24.6682 9.14632 23.9098H7.08029ZM5.01427 12.4709C5.01427 9.68999 6.21145 7.02293 8.34245 5.0565C10.4735 3.09006 13.3637 1.98533 16.3774 1.98533V0.0788574C12.8158 0.0788574 9.40001 1.38445 6.88155 3.70842C4.3631 6.03238 2.94824 9.18436 2.94824 12.4709H5.01427ZM2.94824 18.9186C2.94826 19.45 3.10872 19.9709 3.41161 20.4228C3.7145 20.8747 4.14785 21.2398 4.66304 21.4771L5.58449 19.7708C5.41312 19.6916 5.26902 19.5699 5.16832 19.4194C5.06761 19.2689 5.01427 19.0955 5.01427 18.9186H2.94824ZM10.1793 15.3307C9.90536 15.3307 9.64261 15.2302 9.44888 15.0515C9.25515 14.8727 9.14632 14.6302 9.14632 14.3774H7.08029C7.08029 15.1359 7.4068 15.8632 7.98798 16.3995C8.56916 16.9358 9.35741 17.2371 10.1793 17.2371V15.3307ZM11.2123 14.3774C11.2123 14.6302 11.1035 14.8727 10.9098 15.0515C10.7161 15.2302 10.4533 15.3307 10.1793 15.3307V17.2371C11.0012 17.2371 11.7895 16.9358 12.3707 16.3995C12.9519 15.8632 13.2784 15.1359 13.2784 14.3774H11.2123ZM10.1793 13.4242C10.4533 13.4242 10.7161 13.5246 10.9098 13.7034C11.1035 13.8821 11.2123 14.1246 11.2123 14.3774H13.2784C13.2784 13.619 12.9519 12.8916 12.3707 12.3553C11.7895 11.819 11.0012 11.5177 10.1793 11.5177V13.4242ZM10.1793 11.5177C9.35741 11.5177 8.56916 11.819 7.98798 12.3553C7.4068 12.8916 7.08029 13.619 7.08029 14.3774H9.14632C9.14632 14.1246 9.25515 13.8821 9.44888 13.7034C9.64261 13.5246 9.90536 13.4242 10.1793 13.4242V11.5177ZM22.5755 15.3307C22.3015 15.3307 22.0388 15.2302 21.845 15.0515C21.6513 14.8727 21.5425 14.6302 21.5425 14.3774H19.4764C19.4764 15.1359 19.8029 15.8632 20.3841 16.3995C20.9653 16.9358 21.7536 17.2371 22.5755 17.2371V15.3307ZM23.6085 14.3774C23.6085 14.6302 23.4997 14.8727 23.3059 15.0515C23.1122 15.2302 22.8494 15.3307 22.5755 15.3307V17.2371C23.3974 17.2371 24.1856 16.9358 24.7668 16.3995C25.348 15.8632 25.6745 15.1359 25.6745 14.3774H23.6085ZM22.5755 13.4242C22.8494 13.4242 23.1122 13.5246 23.3059 13.7034C23.4997 13.8821 23.6085 14.1246 23.6085 14.3774H25.6745C25.6745 13.619 25.348 12.8916 24.7668 12.3553C24.1856 11.819 23.3974 11.5177 22.5755 11.5177V13.4242ZM22.5755 11.5177C21.7536 11.5177 20.9653 11.819 20.3841 12.3553C19.8029 12.8916 19.4764 13.619 19.4764 14.3774H21.5425C21.5425 14.1246 21.6513 13.8821 21.845 13.7034C22.0388 13.5246 22.3015 13.4242 22.5755 13.4242V11.5177ZM15.0428 20.7717L17.1088 18.8653L15.646 17.5155L13.58 19.4219L15.0428 20.7717ZM15.646 18.8653L17.7121 20.7717L19.1748 19.4219L17.1088 17.5155L15.646 18.8653Z" fill="#FF0000"/>
</g>
<defs>
<clipPath id="clip0_84_258">
<rect width="30.9904" height="28.5971" fill="white" transform="translate(0.881836 0.0788574)"/>
</clipPath>
</defs>
</svg>
