<svg width="32" height="30" viewBox="0 0 32 30" fill="none" xmlns="http://www.w3.org/2000/svg">
<rect width="32" height="30" fill="#1E1E1E"/>
<g id="Frame 7" clip-path="url(#clip0_0_1)">
<rect width="1920" height="1211" transform="translate(-273 -577)" fill="white"/>
<g id="Group 10">
<path id="Rectangle 10" d="M-57.5 -317.5H1443.5V741.5H-57.5V-317.5Z" fill="#FDFDFD" stroke="#BDB9B9"/>
<g id="Rows">
<g id="ROW 3">
<g id="Frame" clip-path="url(#clip1_0_1)">
<path id="Vector" d="M8.1133 22.9135H9.14632V22.3244L8.57609 22.0613L8.1133 22.9135ZM24.6415 22.9135L24.1787 22.0613L23.6085 22.3244V22.9135H24.6415ZM16.3774 19.1005L17.1088 18.4256C17.0128 18.3369 16.8988 18.2664 16.7733 18.2184C16.6478 18.1703 16.5133 18.1456 16.3774 18.1456C16.2415 18.1456 16.107 18.1703 15.9815 18.2184C15.856 18.2664 15.742 18.3369 15.646 18.4256L16.3774 19.1005ZM5.01427 19.8288V13.3811H2.94824V19.8288H5.01427ZM27.7405 13.3811V19.8288H29.8066V13.3811H27.7405ZM8.57609 22.0613L5.58449 20.681L4.66098 22.3873L7.65051 23.7657L8.57609 22.0613ZM27.1703 20.681L24.1787 22.0613L25.1043 23.7657L28.0938 22.3873L27.1703 20.681ZM9.14632 24.8199V22.9135H7.08029V24.8199H9.14632ZM23.6085 22.9135V24.8199H25.6745V22.9135H23.6085ZM20.5095 27.6797H12.2454V29.5861H20.5095V27.6797ZM23.6085 24.8199C23.6085 25.5784 23.282 26.3058 22.7008 26.8421C22.1196 27.3784 21.3314 27.6797 20.5095 27.6797V29.5861C21.1877 29.5861 21.8594 29.4629 22.486 29.2233C23.1127 28.9838 23.6821 28.6327 24.1617 28.1902C24.6413 27.7476 25.0218 27.2221 25.2813 26.6439C25.5409 26.0656 25.6745 25.4459 25.6745 24.8199H23.6085ZM27.7405 19.8288C27.7405 20.0057 27.6872 20.1791 27.5865 20.3296C27.4858 20.4801 27.3417 20.6017 27.1703 20.681L28.0938 22.3873C28.6086 22.1497 29.0416 21.7845 29.3441 21.3326C29.6466 20.8807 29.8067 20.36 29.8066 19.8288H27.7405ZM16.3774 2.89549C19.3911 2.89549 22.2814 4.00022 24.4124 5.96665C26.5434 7.93309 27.7405 10.6001 27.7405 13.3811H29.8066C29.8066 11.7537 29.4592 10.1423 28.7843 8.63885C28.1095 7.13538 27.1203 5.76928 25.8733 4.61857C24.6262 3.46786 23.1458 2.55507 21.5165 1.93231C19.8872 1.30954 18.1409 0.989014 16.3774 0.989014V2.89549ZM7.08029 24.8199C7.08029 26.084 7.62447 27.2963 8.5931 28.1902C9.56174 29.084 10.8755 29.5861 12.2454 29.5861V27.6797C11.4234 27.6797 10.6352 27.3784 10.054 26.8421C9.47282 26.3058 9.14632 25.5784 9.14632 24.8199H7.08029ZM5.01427 13.3811C5.01427 10.6001 6.21145 7.93309 8.34245 5.96665C10.4735 4.00022 13.3637 2.89549 16.3774 2.89549V0.989014C12.8158 0.989014 9.40001 2.2946 6.88155 4.61857C4.3631 6.94254 2.94824 10.0945 2.94824 13.3811H5.01427ZM2.94824 19.8288C2.94826 20.3602 3.10872 20.881 3.41161 21.3329C3.7145 21.7848 4.14785 22.1499 4.66304 22.3873L5.58449 20.681C5.41312 20.6017 5.26902 20.4801 5.16832 20.3296C5.06761 20.1791 5.01427 20.0057 5.01427 19.8288H2.94824ZM10.1793 16.2408C9.90536 16.2408 9.64261 16.1404 9.44888 15.9616C9.25515 15.7828 9.14632 15.5404 9.14632 15.2876H7.08029C7.08029 16.046 7.4068 16.7734 7.98798 17.3097C8.56916 17.846 9.35741 18.1473 10.1793 18.1473V16.2408ZM11.2123 15.2876C11.2123 15.5404 11.1035 15.7828 10.9098 15.9616C10.7161 16.1404 10.4533 16.2408 10.1793 16.2408V18.1473C11.0012 18.1473 11.7895 17.846 12.3707 17.3097C12.9519 16.7734 13.2784 16.046 13.2784 15.2876H11.2123ZM10.1793 14.3343C10.4533 14.3343 10.7161 14.4348 10.9098 14.6135C11.1035 14.7923 11.2123 15.0348 11.2123 15.2876H13.2784C13.2784 14.5291 12.9519 13.8018 12.3707 13.2655C11.7895 12.7292 11.0012 12.4279 10.1793 12.4279V14.3343ZM10.1793 12.4279C9.35741 12.4279 8.56916 12.7292 7.98798 13.2655C7.4068 13.8018 7.08029 14.5291 7.08029 15.2876H9.14632C9.14632 15.0348 9.25515 14.7923 9.44888 14.6135C9.64261 14.4348 9.90536 14.3343 10.1793 14.3343V12.4279ZM22.5755 16.2408C22.3015 16.2408 22.0388 16.1404 21.845 15.9616C21.6513 15.7828 21.5425 15.5404 21.5425 15.2876H19.4764C19.4764 16.046 19.8029 16.7734 20.3841 17.3097C20.9653 17.846 21.7536 18.1473 22.5755 18.1473V16.2408ZM23.6085 15.2876C23.6085 15.5404 23.4997 15.7828 23.3059 15.9616C23.1122 16.1404 22.8494 16.2408 22.5755 16.2408V18.1473C23.3974 18.1473 24.1856 17.846 24.7668 17.3097C25.348 16.7734 25.6745 16.046 25.6745 15.2876H23.6085ZM22.5755 14.3343C22.8494 14.3343 23.1122 14.4348 23.3059 14.6135C23.4997 14.7923 23.6085 15.0348 23.6085 15.2876H25.6745C25.6745 14.5291 25.348 13.8018 24.7668 13.2655C24.1856 12.7292 23.3974 12.4279 22.5755 12.4279V14.3343ZM22.5755 12.4279C21.7536 12.4279 20.9653 12.7292 20.3841 13.2655C19.8029 13.8018 19.4764 14.5291 19.4764 15.2876H21.5425C21.5425 15.0348 21.6513 14.7923 21.845 14.6135C22.0388 14.4348 22.3015 14.3343 22.5755 14.3343V12.4279ZM15.0428 21.6819L17.1088 19.7754L15.646 18.4256L13.58 20.3321L15.0428 21.6819ZM15.646 19.7754L17.7121 21.6819L19.1748 20.3321L17.1088 18.4256L15.646 19.7754Z" fill="#412C2C"/>
</g>
</g>
</g>
</g>
</g>
<defs>
<clipPath id="clip0_0_1">
<rect width="1920" height="1211" fill="white" transform="translate(-273 -577)"/>
</clipPath>
<clipPath id="clip1_0_1">
<rect width="30.9904" height="28.5971" fill="white" transform="translate(0.881836 0.989014)"/>
</clipPath>
</defs>
</svg>
