<svg width="32" height="30" viewBox="0 0 32 30" fill="none" xmlns="http://www.w3.org/2000/svg">
<g clip-path="url(#clip0_84_178)">
<path d="M1.83105 7.09005V24.2483C1.83105 24.7539 2.04872 25.2389 2.43618 25.5964C2.82363 25.9539 3.34914 26.1548 3.89708 26.1548H28.6894C29.2373 26.1548 29.7628 25.9539 30.1503 25.5964C30.5377 25.2389 30.7554 24.7539 30.7554 24.2483V8.99652C30.7554 8.4909 30.5377 8.00598 30.1503 7.64844C29.7628 7.29091 29.2373 7.09005 28.6894 7.09005H6.99612M1.83105 7.09005V5.18357C1.83105 4.67795 2.04872 4.19303 2.43618 3.83549C2.82363 3.47796 3.34914 3.2771 3.89708 3.2771H20.4253C20.9732 3.2771 21.4987 3.47796 21.8862 3.83549C22.2736 4.19303 22.4913 4.67795 22.4913 5.18357V7.09005H6.99612M1.83105 7.09005H6.99612M19.3923 18.5289H25.5903" stroke="black" stroke-width="2"/>
</g>
<defs>
<clipPath id="clip0_84_178">
<rect width="30.9904" height="28.5971" fill="white" transform="translate(0.797852 0.41748)"/>
</clipPath>
</defs>
</svg>
