<svg width="28" height="28" viewBox="0 0 28 28" fill="none" xmlns="http://www.w3.org/2000/svg">
<g clip-path="url(#clip0_379_207)">
<path d="M10.5012 13.9405C10.5 7 12.8333 2.33333 17.5 0C18.0833 7 24.5 9.33333 24.5 17.5C24.5 20.2848 23.3938 22.9555 21.4246 24.9246C19.4555 26.8938 16.7848 28 14 28C11.2152 28 8.54451 26.8938 6.57538 24.9246C4.60625 22.9555 3.5 20.2848 3.5 17.5C3.5 13.4167 4.66667 11.6667 7 9.33333C7 12.8333 10.5012 13.9405 10.5012 13.9405Z" fill="#F16923"/>
<path opacity="0.1" d="M13.9995 27.7083C9.30254 27.7083 5.32537 24.6563 3.92188 20.4307C5.19121 24.8022 9.21854 28 13.9995 28C18.7805 28 22.8079 24.8022 24.0772 20.4307C22.6737 24.6563 18.6965 27.7083 13.9995 27.7083Z" fill="#010101"/>
<path d="M19.25 20.4166C19.25 21.809 18.6969 23.1443 17.7123 24.1289C16.7277 25.1135 15.3924 25.6666 14 25.6666C12.6076 25.6666 11.2723 25.1135 10.2877 24.1289C9.30312 23.1443 8.75 21.809 8.75 20.4166C8.75 18.4601 9.33333 17.4509 10.5 16.3333C10.5 18.6666 12.25 19.2499 12.25 19.2499C12.25 15.9249 13.4167 13.9509 15.75 12.8333C16.0417 16.1874 19.25 17.2818 19.25 20.4166Z" fill="#FDB816"/>
<path opacity="0.2" d="M12.25 19.5416C12.25 16.2166 13.4167 14.2426 15.75 13.1249C16.0358 16.4126 19.117 17.5338 19.2383 20.5298C19.2395 20.4913 19.25 20.4551 19.25 20.4166C19.25 17.2806 16.0417 16.1874 15.75 12.8333C13.4167 13.9509 12.25 15.9249 12.25 19.2499C12.25 19.2499 10.5 18.6666 10.5 16.3333C9.33333 17.4509 8.75 18.4601 8.75 20.4166C8.75 20.4446 8.75817 20.4703 8.75817 20.4983C8.80133 18.6841 9.3765 17.7006 10.5 16.6249C10.5 18.9583 12.25 19.5416 12.25 19.5416Z" fill="white"/>
<path opacity="0.1" d="M14 25.3749C12.6227 25.3741 11.301 24.8316 10.3202 23.8646C9.33945 22.8976 8.77838 21.5837 8.75817 20.2065C8.757 20.2789 8.75 20.3419 8.75 20.4165C8.75 21.8089 9.30312 23.1443 10.2877 24.1289C11.2723 25.1134 12.6076 25.6665 14 25.6665C15.3924 25.6665 16.7277 25.1134 17.7123 24.1289C18.6969 23.1443 19.25 21.8089 19.25 20.4165C19.25 20.3547 19.2407 20.2987 19.2383 20.238C19.2106 21.6093 18.6466 22.9151 17.6673 23.8753C16.6881 24.8356 15.3715 25.3739 14 25.3749Z" fill="#010101"/>
<path opacity="0.2" d="M10.5012 14.2322C10.5 7.29167 12.8333 2.625 17.5 0.291667C18.0798 7.24733 24.4125 9.60167 24.493 17.6435C24.493 17.5957 24.5 17.549 24.5 17.5C24.5 9.33333 18.0833 7 17.5 0C12.8333 2.33333 10.5 7 10.5012 13.9405C10.5012 13.9405 7 12.8333 7 9.33333C4.66667 11.6667 3.5 13.4167 3.5 17.5C3.5 17.542 3.50583 17.584 3.50583 17.626C3.54083 13.6675 4.70167 11.9233 7 9.625C7 13.125 10.5012 14.2322 10.5012 14.2322Z" fill="white"/>
<path d="M10.5012 13.9405C10.5 7 12.8333 2.33333 17.5 0C18.0833 7 24.5 9.33333 24.5 17.5C24.5 20.2848 23.3938 22.9555 21.4246 24.9246C19.4555 26.8938 16.7848 28 14 28C11.2152 28 8.54451 26.8938 6.57538 24.9246C4.60625 22.9555 3.5 20.2848 3.5 17.5C3.5 13.4167 4.66667 11.6667 7 9.33333C7 12.8333 10.5012 13.9405 10.5012 13.9405Z" fill="url(#paint0_linear_379_207)"/>
</g>
<defs>
<linearGradient id="paint0_linear_379_207" x1="5.72367" y1="9.86883" x2="24.9632" y2="18.8405" gradientUnits="userSpaceOnUse">
<stop stop-color="white" stop-opacity="0.2"/>
<stop offset="1" stop-color="white" stop-opacity="0"/>
</linearGradient>
<clipPath id="clip0_379_207">
<rect width="28" height="28" fill="white"/>
</clipPath>
</defs>
</svg>
