<svg width="30" height="30" viewBox="0 0 30 30" fill="none" xmlns="http://www.w3.org/2000/svg">
<g clip-path="url(#clip0_379_201)">
<mask id="mask0_379_201" style="mask-type:luminance" maskUnits="userSpaceOnUse" x="0" y="0" width="30" height="30">
<path d="M0 0H30V30H0V0Z" fill="white"/>
</mask>
<g mask="url(#mask0_379_201)">
<path fill-rule="evenodd" clip-rule="evenodd" d="M7.28365 16.255C7.30251 16.2135 7.33293 16.1783 7.37128 16.1536C7.40963 16.1289 7.45428 16.1157 7.4999 16.1157C7.54551 16.1157 7.59017 16.1289 7.62852 16.1536C7.66686 16.1783 7.69729 16.2135 7.71615 16.255L7.92865 16.7188C8.83792 18.5996 10.2701 20.1785 12.0536 21.2663L12.3849 21.46C12.42 21.4797 12.4493 21.5083 12.4697 21.543C12.49 21.5778 12.5008 21.6173 12.5008 21.6575C12.5008 21.6978 12.49 21.7373 12.4697 21.772C12.4493 21.8067 12.42 21.8354 12.3849 21.855L12.0536 22.0488C10.2701 23.1366 8.83792 24.7154 7.92865 26.5963L7.71615 27.0613C7.69729 27.1028 7.66686 27.138 7.62852 27.1628C7.59017 27.1875 7.54551 27.2006 7.4999 27.2006C7.45428 27.2006 7.40963 27.1875 7.37128 27.1628C7.33293 27.138 7.30251 27.1028 7.28365 27.0613L7.07115 26.5963C6.16188 24.7154 4.7297 23.1366 2.94615 22.0488L2.6149 21.855C2.57976 21.8354 2.5505 21.8067 2.53013 21.772C2.50976 21.7373 2.49902 21.6978 2.49902 21.6575C2.49902 21.6173 2.50976 21.5778 2.53013 21.543C2.5505 21.5083 2.57976 21.4797 2.6149 21.46L2.94615 21.2663C4.87875 20.088 6.39516 18.3368 7.28365 16.255ZM7.49615 20.6125L7.2774 20.87C7.12115 21.045 6.96115 21.2163 6.79615 21.3825L6.54615 21.63L6.5124 21.66L6.79615 21.9388L7.0399 22.1925L7.2774 22.4525L7.49615 22.7088L7.7149 22.4525C7.87115 22.2775 8.03115 22.1063 8.19615 21.9388L8.4799 21.66L8.44615 21.63C8.2774 21.4675 8.1124 21.3013 7.9524 21.13L7.7149 20.87L7.49615 20.6125ZM18.0911 3.41254C18.1236 3.33938 18.1767 3.27722 18.2438 3.2336C18.3109 3.18997 18.3892 3.16675 18.4693 3.16675C18.5493 3.16675 18.6277 3.18997 18.6948 3.2336C18.7619 3.27722 18.8149 3.33938 18.8474 3.41254L19.0349 3.83254L19.2199 4.22504L19.4636 4.71254L19.7461 5.23754L19.8861 5.48254C21.1313 7.63147 22.7854 9.5157 24.7549 11.0288L25.2886 11.425C25.8447 11.8217 26.4218 12.1881 27.0174 12.5225C27.0788 12.557 27.1299 12.6071 27.1655 12.6679C27.2011 12.7286 27.2199 12.7978 27.2199 12.8682C27.2199 12.9386 27.2011 13.0077 27.1655 13.0684C27.1299 13.1292 27.0788 13.1794 27.0174 13.2138C26.5551 13.474 26.1039 13.7534 25.6649 14.0513L25.2149 14.365C23.0441 15.9307 21.2283 17.9369 19.8861 20.2525L19.7224 20.5425C19.5455 20.8605 19.3779 21.1835 19.2199 21.5113L19.0361 21.9038L18.8486 22.3238C18.8163 22.3973 18.7633 22.4598 18.696 22.5037C18.6288 22.5476 18.5502 22.571 18.4699 22.571C18.3896 22.571 18.311 22.5476 18.2438 22.5037C18.1765 22.4598 18.1235 22.3973 18.0911 22.3238L17.9036 21.9038L17.7186 21.5113L17.4736 21.0238L17.1924 20.4988L17.0511 20.2538C15.8063 18.105 14.1527 16.2208 12.1836 14.7075L11.6486 14.3125C11.0931 13.915 10.5164 13.5478 9.92115 13.2125C9.86004 13.178 9.8092 13.1279 9.77382 13.0673C9.73845 13.0066 9.71981 12.9377 9.71981 12.8675C9.71981 12.7974 9.73845 12.7284 9.77382 12.6678C9.8092 12.6072 9.86004 12.5571 9.92115 12.5225C10.383 12.2626 10.8338 11.9836 11.2724 11.6863L11.7236 11.3713C13.8939 9.80547 15.7093 7.79925 17.0511 5.48379L17.2161 5.19379C17.3924 4.87629 17.5599 4.55379 17.7186 4.22504L17.9024 3.83254L18.0911 3.41254ZM18.4686 7.93129C17.211 9.8072 15.6658 11.4734 13.8899 12.8688C15.6658 14.2641 17.211 15.9304 18.4686 17.8063C19.7263 15.9303 21.2715 14.2641 23.0474 12.8688C21.2715 11.4735 19.7263 9.80723 18.4686 7.93129Z" fill="#383B88"/>
</g>
</g>
<defs>
<clipPath id="clip0_379_201">
<rect width="30" height="30" fill="white"/>
</clipPath>
</defs>
</svg>
