<svg width="30" height="30" viewBox="0 0 30 30" fill="none" xmlns="http://www.w3.org/2000/svg">
<path d="M16.4062 7.5L24.9341 7.5027L25.1358 7.52988L25.3481 7.59208L25.5386 7.68163L25.6109 7.72565L25.7023 7.79022L25.8449 7.91585L26.003 8.10558L26.1123 8.29256L26.1902 8.49022L26.2335 8.67277L26.2529 8.90625V17.351C26.2529 18.1277 25.6233 18.7573 24.8466 18.7573C24.1347 18.7573 23.5463 18.2283 23.4532 17.5419L23.4404 17.351L23.4394 12.3019L15.5258 20.2202C15.0264 20.7199 14.2446 20.7651 13.6939 20.3561L13.5362 20.2197L10.7785 17.4584L6.15082 22.0879C5.60175 22.6372 4.71136 22.6374 4.16208 22.0883C3.66273 21.5892 3.61719 20.8079 4.02555 20.2573L4.16168 20.0996L9.78443 14.4746C10.2839 13.9749 11.0657 13.9297 11.6163 14.3387L11.774 14.475L14.5317 17.2364L21.4519 10.3125H16.4062C15.6943 10.3125 15.106 9.78346 15.0128 9.09707L15 8.90625C15 8.1296 15.6296 7.5 16.4062 7.5Z" fill="#E17979"/>
</svg>
