<svg width="100" height="39" viewBox="0 0 100 39" fill="none" xmlns="http://www.w3.org/2000/svg">
<path d="M21.4355 0.360828C17.4147 1.48428 12.8322 4.70681 7.18539 10.2649C3.8446 13.5762 2.24812 15.9413 0.829021 19.5778C0.119473 21.3516 0.00121466 22.0908 0.00121466 24.7516C-0.0283499 28.4767 0.474247 30.1619 2.33681 32.6749C3.8446 34.7444 6.80106 36.8139 9.58012 37.7895C11.0583 38.2921 12.1818 38.4399 14.4583 38.4399C17.8878 38.4399 20.519 37.6713 23.2094 35.8974C24.6876 34.9218 36.2769 23.3916 46.0923 13.1918C49.1966 9.9693 50.6452 8.69803 51.8278 8.10674C54.9321 6.59895 57.9772 7.30849 60.845 10.1763C62.1458 11.5067 62.205 11.5362 62.6484 11.0041C64.5701 8.43195 66.344 5.85983 66.344 5.59375C66.344 5.12072 63.8015 2.99207 62.0572 1.98688C57.7703 -0.466976 52.0643 -0.289589 46.8314 2.45991C44.9393 3.43554 43.8158 4.55899 33.0839 16.0005C26.6684 22.8299 20.7851 28.9202 20.046 29.5115C16.5278 32.2905 11.2653 32.1427 8.57493 29.1862C7.21496 27.6785 6.86018 26.348 7.24452 24.1898C7.89494 20.7604 10.201 17.2717 14.3991 13.4579C19.5138 8.75716 20.8146 7.84065 22.4998 7.45632C24.3919 7.07198 27.2006 8.46151 28.5605 10.4423C29.1814 11.3588 29.9796 11.7727 29.9796 11.211C29.9796 11.0928 31.044 9.88061 32.3448 8.49108C33.6456 7.10154 34.71 5.83027 34.71 5.65288C34.71 4.94333 30.9848 1.86862 29.1223 1.01125C26.7571 -0.0530739 23.8007 -0.289589 21.4355 0.360828Z" fill="white"/>
<path d="M81.4222 0.538078C79.7074 1.01111 78.1109 1.75023 76.3962 2.90324C74.7701 3.99713 63.2695 15.4386 54.4297 24.781C48.9603 30.5756 47.7482 31.4034 44.7621 31.3739C42.4561 31.3739 40.8596 30.6643 38.9971 28.7131C38.2875 28.0035 37.6371 27.4122 37.578 27.4122C37.4893 27.4122 36.4545 28.7131 35.3015 30.28L33.1729 33.1773L34.7693 34.6555C38.1988 37.8485 42.9291 39.2085 47.3343 38.2624C48.6055 37.9963 50.4977 37.3459 51.562 36.8137C53.7202 35.779 54.0158 35.5129 67.9703 21.0559C79.8552 8.72745 79.8848 8.72745 81.57 7.89964C83.7873 6.83532 86.8916 6.86489 89.1681 7.98834C94.5488 10.6491 93.6619 16.8873 86.8916 23.6575C83.2552 27.294 80.0326 30.0435 78.6135 30.6939C76.1892 31.8173 73.8536 31.1374 71.6067 28.6244L70.2468 27.1166L68.0886 29.4817C65.1912 32.6747 65.073 32.8817 65.4573 33.5912C65.9599 34.5373 69.0051 36.9024 70.7789 37.7007C73.1441 38.7946 76.3075 38.9424 79.057 38.0555C82.6639 36.9024 85.4134 35.0103 90.9715 29.9843C95.4949 25.8453 97.6235 22.8297 99.1904 18.3359C102.443 9.05266 95.5244 0.124176 85.1473 0.242432C83.6691 0.242432 81.9839 0.390255 81.4222 0.538078Z" fill="white"/>
</svg>
