<svg width="200" height="78" viewBox="0 0 200 78" fill="none" xmlns="http://www.w3.org/2000/svg">
<path d="M42.871 0.721169C34.8294 2.96807 25.6644 9.41314 14.3708 20.5294C7.68921 27.1519 4.49624 31.8822 1.65804 39.1551C0.238945 42.7028 0.00242933 44.181 0.00242933 49.5026C-0.0566997 56.9529 0.948494 60.3233 4.67362 65.3492C7.68921 69.4883 13.6021 73.6273 19.1602 75.5786C22.1167 76.5837 24.3636 76.8794 28.9165 76.8794C35.7755 76.8794 41.038 75.342 46.4187 71.7943C49.3752 69.843 72.5538 46.7827 92.1846 26.3832C98.3932 19.9381 101.291 17.3956 103.656 16.213C109.864 13.1974 115.954 14.6165 121.69 20.352C124.292 23.0128 124.41 23.072 125.297 22.0076C129.14 16.8634 132.688 11.7192 132.688 11.187C132.688 10.2409 127.603 5.98365 124.114 3.97327C115.541 -0.934445 104.129 -0.579668 93.6628 4.91933C89.8786 6.87059 87.6317 9.1175 66.1678 32.0004C53.3368 45.6593 41.5702 57.8398 40.0919 59.0224C33.0556 64.5806 22.5306 64.2849 17.1499 58.372C14.4299 55.3564 13.7204 52.6956 14.489 48.3792C15.7899 41.5202 20.402 34.543 28.7983 26.9153C39.0276 17.5138 41.6293 15.6808 44.9996 14.9121C48.7839 14.1435 54.4012 16.9225 57.1211 20.8842C58.3628 22.7172 59.9593 23.545 59.9593 22.4215C59.9593 22.185 62.0879 19.7607 64.6896 16.9817C67.2913 14.2026 69.4199 11.66 69.4199 11.3053C69.4199 9.88618 61.9697 3.73675 58.2445 2.02201C53.5142 -0.106635 47.6013 -0.579671 42.871 0.721169Z" fill="black"/>
<path d="M162.844 1.07567C159.415 2.02174 156.222 3.49996 152.792 5.80599C149.54 7.99377 126.539 30.8767 108.859 49.5615C97.9206 61.1508 95.4963 62.8064 89.5243 62.7473C84.9122 62.7473 81.7193 61.3282 77.9941 57.4256C76.575 56.0066 75.2742 54.824 75.1559 54.824C74.9785 54.824 72.909 57.4256 70.603 60.5595L66.3457 66.3541L69.5387 69.3106C76.3976 75.6965 85.8583 78.4165 94.6685 76.5243C97.2111 75.9922 100.995 74.6913 103.124 73.627C107.44 71.5575 108.032 71.0253 135.941 42.1112C159.71 17.4544 159.77 17.4544 163.14 15.7988C167.575 13.6702 173.783 13.7293 178.336 15.9762C189.098 21.2978 187.324 33.774 173.783 47.3146C166.51 54.5875 160.065 60.0865 157.227 61.3873C152.378 63.6342 147.707 62.2742 143.213 57.2483L140.494 54.2327L136.177 58.963C130.382 65.3489 130.146 65.7628 130.915 67.1819C131.92 69.0741 138.01 73.8044 141.558 75.4009C146.288 77.5887 152.615 77.8843 158.114 76.1104C165.328 73.8044 170.827 70.0201 181.943 59.9682C190.99 51.6901 195.247 45.659 198.381 36.6714C204.885 18.1048 191.049 0.247864 170.295 0.484375C167.338 0.484375 163.968 0.780022 162.844 1.07567Z" fill="black"/>
</svg>
