<svg width="22" height="22" viewBox="0 0 22 22" fill="none" xmlns="http://www.w3.org/2000/svg">
<g clip-path="url(#clip0_84_337)">
<path d="M21.2667 21.2667L15.4001 15.4001M9.5334 18.3334C8.37777 18.3334 7.23345 18.1058 6.16578 17.6635C5.09812 17.2213 4.12801 16.5731 3.31086 15.7559C2.4937 14.9388 1.8455 13.9687 1.40326 12.901C0.961017 11.8333 0.733398 10.689 0.733398 9.5334C0.733398 8.37777 0.961017 7.23345 1.40326 6.16578C1.8455 5.09812 2.4937 4.12801 3.31086 3.31086C4.12801 2.4937 5.09812 1.8455 6.16578 1.40326C7.23345 0.961017 8.37777 0.733398 9.5334 0.733398C11.8673 0.733398 14.1056 1.66054 15.7559 3.31086C17.4063 4.96118 18.3334 7.19949 18.3334 9.5334C18.3334 11.8673 17.4063 14.1056 15.7559 15.7559C14.1056 17.4063 11.8673 18.3334 9.5334 18.3334Z" stroke="#8D8D8D" stroke-width="2"/>
</g>
<defs>
<clipPath id="clip0_84_337">
<rect width="22" height="22" fill="white"/>
</clipPath>
</defs>
</svg>
