<svg width="45" height="45" viewBox="0 0 45 45" fill="none" xmlns="http://www.w3.org/2000/svg">
<g clip-path="url(#clip0_84_393)">
<path d="M22.5 41.25C24.5625 41.25 26.25 39.5625 26.25 37.5H18.75C18.75 39.5625 20.4188 41.25 22.5 41.25ZM33.75 30V20.625C33.75 14.8688 30.675 10.05 25.3125 8.775V7.5C25.3125 5.94375 24.0563 4.6875 22.5 4.6875C20.9438 4.6875 19.6875 5.94375 19.6875 7.5V8.775C14.3063 10.05 11.25 14.85 11.25 20.625V30L8.83129 32.4188C7.65004 33.6 8.47504 35.625 10.1438 35.625H34.8375C36.5063 35.625 37.35 33.6 36.1688 32.4188L33.75 30Z" fill="#FBF8F8"/>
</g>
<defs>
<clipPath id="clip0_84_393">
<rect width="45" height="45" fill="white"/>
</clipPath>
</defs>
</svg>
