<svg width="33" height="36" viewBox="0 0 33 36" fill="none" xmlns="http://www.w3.org/2000/svg">
<path d="M25.0639 31.2694C25.5811 31.0217 26.0485 30.6612 26.4386 30.2091C26.8288 29.757 27.1337 29.2224 27.3356 28.6369C27.9641 26.6907 27.7041 24.5222 26.5632 23.4254C25.4223 22.3285 22.6939 20.7141 22.6939 20.7141C22.6939 20.7141 22.0098 22.1738 23.1987 24.2185C24.3345 26.1872 24.9504 27.2082 25.3315 28.3107C25.8211 29.7282 25.0639 31.2694 25.0639 31.2694Z" fill="black"/>
<path d="M27.9919 24.5194C27.9919 24.5194 28.262 22.4297 25.3089 21.1444C23.0701 20.1656 21.2023 19.3331 20.2936 18.1069C20.0075 17.7312 19.7987 17.2903 19.6818 16.8151C19.565 16.3399 19.5429 15.8419 19.6172 15.3562C19.6172 15.3562 20.3391 16.3265 23.2038 16.6612C25.8389 16.9706 27.4947 18.0197 28.1863 19.7072C28.5152 20.4641 28.6696 21.3005 28.6357 22.1407C28.6018 22.9808 28.3805 23.7984 27.9919 24.5194ZM21.3764 20.0222C21.3764 20.0222 21.9948 22.154 20.8868 23.4169C19.9201 24.5165 18.4889 24.5194 17.3531 24.764C16.5699 24.9332 15.8234 25.2694 15.1547 25.754C16.2275 25.4443 17.3282 25.2698 18.4359 25.2337C19.9857 25.2337 21.3007 24.5278 21.7828 23.31C22.5981 21.2709 21.3764 20.0222 21.3764 20.0222ZM15.8766 28.8028C16.7776 28.3725 17.7166 28.8619 18.3097 29.7478C18.9029 30.6337 19.1477 32.4984 20.4299 33.3394C21.7121 34.1803 23.0827 32.8415 23.0827 32.8415C23.0827 32.8415 21.8005 33.4462 21.0281 33.0272C20.1977 32.5772 20.0715 31.7897 19.9251 30.434C19.6727 28.2206 18.6303 27.3403 17.7141 26.969C16.4183 26.5002 15.0096 26.6122 13.7867 27.2812C12.9159 27.7682 12.1008 28.3696 11.3585 29.0728C11.3585 29.0728 12.873 29.354 13.4787 29.7562C14.0845 30.1584 14.8569 31.5253 15.6242 31.7925C16.3284 32.04 17.0578 31.9162 17.4516 31.2806C17.8453 30.645 17.6737 29.5312 17.0326 29.2922C16.2476 28.9969 15.6873 29.4131 15.7201 29.9531C15.7136 30.0978 15.7576 30.2396 15.8427 30.3491C15.9278 30.4586 16.0475 30.5273 16.1769 30.5409C16.1769 30.5409 15.6721 30.2597 15.8841 29.7815C16.1365 29.2556 16.7171 29.3315 17.0326 29.579C17.4188 29.8828 17.4768 30.929 16.818 31.2272C16.1593 31.5253 15.3263 31.0387 15.2001 30.4565C15.0739 29.8744 15.1219 29.1656 15.8766 28.8028ZM13.9305 14.1665L3.21094 0.925293C3.21094 0.925293 12.3151 13.4353 12.6407 13.8628C12.9663 14.2903 13.1456 14.6672 12.8629 14.9569C12.6272 15.1736 12.3425 15.3138 12.04 15.3619C11.8294 15.4147 11.6094 15.3969 11.4078 15.3108C11.2061 15.2248 11.0318 15.0742 10.9067 14.8781C10.4474 14.2622 7.09291 8.34748 7.09291 8.34748C7.09291 8.34748 10.0965 14.4056 10.2505 14.7628C10.4044 15.12 10.5029 15.435 10.3514 15.66C10.1034 15.9499 9.89354 16.2776 9.728 16.6331C9.56142 17.0887 9.42512 18.4219 9.2863 18.9984C8.9132 20.2357 8.31129 21.3721 7.51947 22.334C6.7976 23.1778 6.23978 24.2747 6.45938 25.8244C6.66887 27.3065 7.52452 28.4822 7.66839 28.7353C7.81599 28.9616 7.90346 29.2296 7.92079 29.5087C7.92079 29.5087 10.0662 29.2275 11.2904 27.9759C12.3909 26.8509 11.7952 25.5909 11.4721 25.2731C11.2424 25.0453 9.77091 23.9456 9.62452 23.3662C9.47813 22.7869 9.24087 22.379 9.94255 20.8125C10.6442 19.2459 10.465 19.08 10.5584 18.54C10.6518 18 10.6316 16.8862 11.1894 16.6612C11.7472 16.4362 12.4514 16.5403 13.1228 16.0987C14.1022 15.435 13.9305 14.1665 13.9305 14.1665ZM7.87284 25.9453C7.83198 25.9458 7.79147 25.9369 7.75384 25.9191C7.7162 25.9014 7.68224 25.8752 7.65407 25.8423C7.6259 25.8093 7.60412 25.7702 7.59008 25.7275C7.57604 25.6847 7.57005 25.6392 7.57248 25.5937C7.57248 25.4053 7.74916 25.2703 7.71887 25.1522C7.68858 25.034 7.53462 25.0284 7.5018 24.8709C7.48413 24.7865 7.54976 24.6262 7.8274 24.615C7.98653 24.6251 8.136 24.7033 8.24463 24.8333C8.35326 24.9632 8.41267 25.1349 8.41046 25.3125C8.40597 25.4735 8.34841 25.627 8.24878 25.7438C8.14914 25.8605 8.01441 25.9322 7.87031 25.9453H7.87284ZM14.8266 16.6865C14.6436 16.6992 14.465 16.754 14.302 16.8475C14.139 16.941 13.9952 17.0711 13.8797 17.2297C13.7641 17.3883 13.6794 17.5719 13.6308 17.7689C13.5822 17.9659 13.5708 18.1719 13.5974 18.374C13.6806 19.0884 14.5237 19.035 15.0462 18.855C15.5686 18.675 16.1264 18.5737 16.0785 17.8453C16.0305 17.1169 15.2481 16.6612 14.8266 16.6865ZM14.8442 17.8425C14.5161 17.8425 14.2511 17.64 14.2511 17.3897C14.2511 17.1394 14.5035 16.9369 14.8442 16.9369C15.185 16.9369 15.4374 17.1394 15.4374 17.3897C15.4374 17.64 15.1724 17.8425 14.8442 17.8425ZM12.8149 9.02529C12.8149 9.02529 13.9936 9.14904 14.5641 10.1503C15.1345 11.1515 15.0689 12.4931 15.3793 13.0865C15.531 13.4113 15.6996 13.7259 15.8841 14.0287C15.9725 14.1525 16.0406 14.3381 15.8286 14.3803C15.3087 14.4872 14.1375 13.9584 13.4964 12.5465C12.5373 10.4456 12.8149 9.02529 12.8149 9.02529ZM24.8268 8.77779C24.8268 8.77779 24.4936 9.53717 24.7486 10.8731C24.8219 11.2441 24.9986 11.5797 25.2534 11.8322C25.7371 12.3626 26.1907 12.9262 26.6113 13.5197L25.425 12.4481C25.1726 12.2231 25.0212 12.2315 25.006 12.4706C24.9909 12.7097 24.9 13.7531 24.8672 13.9809C24.791 14.2767 24.6922 14.5646 24.5719 14.8415C24.5719 14.8415 24.6956 14.1919 24.7082 14.0147C24.7359 13.5815 24.7309 12.2597 24.4356 11.8406C23.9308 11.1262 22.4163 10.485 22.4163 10.485C23.0052 10.582 23.5788 10.7714 24.1201 11.0475C24.3472 11.1656 24.3977 11.0784 24.3977 10.9012C24.4146 10.4298 24.4584 9.96014 24.529 9.49498C24.5759 9.23302 24.678 8.98722 24.8268 8.77779Z" fill="black"/>
<path d="M25.4099 13.6098C25.213 14.8529 24.8319 15.2973 24.7082 15.4041C24.6291 15.4827 24.5279 15.5282 24.422 15.5329C24.3161 15.5375 24.212 15.5009 24.1276 15.4295C24.0499 15.3508 23.9986 15.245 23.982 15.1294C23.9655 15.0139 23.9848 14.8955 24.0368 14.7938C24.1456 14.5734 24.2222 14.3351 24.2639 14.0879C24.2963 13.5224 24.2589 12.9546 24.1529 12.4004C23.7353 12.0847 23.2885 11.8197 22.8202 11.6101C19.9907 10.322 17.8049 11.1263 17.8049 11.1263C17.8049 11.1263 16.6363 9.55695 15.4904 8.87633C14.6842 8.43436 13.7867 8.24018 12.8906 8.31383C12.8906 8.31383 14.506 8.59508 15.4147 9.4107C17.0452 10.8929 18.7338 13.981 19.9251 14.701C22.3659 16.1776 24.4987 15.2973 25.8087 16.0285C26.7981 16.591 27.0707 17.2688 27.0707 17.2688C26.8221 15.905 26.2484 14.6411 25.4099 13.6098Z" fill="black"/>
</svg>
