<svg width="36" height="36" viewBox="0 0 36 36" fill="none" xmlns="http://www.w3.org/2000/svg">
<path fill-rule="evenodd" clip-rule="evenodd" d="M12.0314 6.03997C12.6568 5.89282 13.3065 6.16029 13.647 6.70509L15.0813 9.00009H20.9187L22.353 6.70509C22.6935 6.16029 23.3432 5.89282 23.9685 6.03997L30.3435 7.53997C30.8501 7.65913 31.2585 8.0322 31.423 8.52576L33.6149 15.101C34.2011 16.8599 34.5 18.7019 34.5 20.5559V27.0001C34.5 27.6134 34.1265 28.165 33.5571 28.3928L26.0571 31.3928C25.5 31.6156 24.8637 31.4851 24.4394 31.0607L21.8787 28.5001H14.1213L11.5607 31.0607C11.1364 31.4851 10.5 31.6156 9.94292 31.3928L2.44292 28.3928C1.87343 28.165 1.5 27.6134 1.5 27.0001V20.5559C1.5 18.7019 1.7989 16.8599 2.38521 15.101L4.57698 8.52576C4.7415 8.0322 5.15001 7.65913 5.65644 7.53997L12.0314 6.03997ZM12.75 15.7501C10.6789 15.7501 9 17.429 9 19.5001C9 21.5711 10.6789 23.2501 12.75 23.2501C14.8211 23.2501 16.5 21.5711 16.5 19.5001C16.5 17.429 14.8211 15.7501 12.75 15.7501ZM19.5 19.5001C19.5 17.429 21.179 15.7501 23.25 15.7501C25.321 15.7501 27 17.429 27 19.5001C27 21.5711 25.321 23.2501 23.25 23.2501C21.179 23.2501 19.5 21.5711 19.5 19.5001Z" fill="white"/>
</svg>
