<svg width="24" height="26" viewBox="0 0 24 26" fill="none" xmlns="http://www.w3.org/2000/svg">
<g clip-path="url(#clip0_84_351)">
<path d="M12.0001 0.866765L12.6145 0.312098C12.5394 0.214563 12.4454 0.136095 12.3393 0.0822473C12.2331 0.0283996 12.1173 0.000488281 12.0001 0.000488281C11.8828 0.000488281 11.767 0.0283996 11.6609 0.0822473C11.5547 0.136095 11.4607 0.214563 11.3857 0.312098L12.0001 0.866765ZM4.00007 11.2668L3.38567 10.7121C3.27781 10.8523 3.21355 11.0258 3.20206 11.2079C3.19057 11.3899 3.23243 11.5713 3.32167 11.7261L4.00007 11.2668ZM12.0001 25.1334L11.3217 25.5928C11.3936 25.7174 11.4936 25.8202 11.6123 25.8915C11.7309 25.9627 11.8644 26.0001 12.0001 26.0001C12.1358 26.0001 12.2692 25.9627 12.3879 25.8915C12.5066 25.8202 12.6066 25.7174 12.6785 25.5928L12.0001 25.1334ZM20.0001 11.2668L20.6785 11.7261C20.7677 11.5713 20.8096 11.3899 20.7981 11.2079C20.7866 11.0258 20.7223 10.8523 20.6145 10.7121L20.0001 11.2668ZM12.0001 7.8001L12.2977 6.99583L12.0001 6.8641L11.7025 6.9941L12.0001 7.8001ZM11.3857 0.312098L3.38567 10.7121L4.61447 11.8214L12.6145 1.42143L11.3857 0.312098ZM3.32167 11.7261L11.3217 25.5928L12.6785 24.6741L4.67847 10.8074L3.32167 11.7261ZM12.6785 25.5928L20.6785 11.7261L19.3217 10.8074L11.3217 24.6741L12.6785 25.5928ZM20.6145 10.7121L12.6145 0.312098L11.3857 1.42143L19.3857 11.8214L20.6145 10.7121ZM4.29767 12.071L12.2977 8.60437L11.7025 6.9941L3.70247 10.4625L4.29767 12.071ZM11.7025 8.60437L19.7025 12.071L20.2977 10.4625L12.2977 6.99583L11.7025 8.60437Z" fill="#7098BD"/>
</g>
<defs>
<clipPath id="clip0_84_351">
<rect width="24" height="26" fill="white"/>
</clipPath>
</defs>
</svg>
