<svg width="28" height="27" viewBox="0 0 28 27" fill="none" xmlns="http://www.w3.org/2000/svg">
<path d="M23.0653 8.45621L23.0828 8.43963L18.737 4.33169L17.5003 5.50381L19.962 7.83698C19.4105 8.03563 18.9356 8.38832 18.6002 8.84839C18.2647 9.30846 18.0846 9.85421 18.0837 10.4134C18.0837 11.9394 19.3903 13.1778 21.0003 13.1778C21.4145 13.1778 21.8112 13.0949 22.167 12.9456V20.9182C22.167 21.5264 21.642 22.024 21.0003 22.024C20.3587 22.024 19.8337 21.5264 19.8337 20.9182V15.9423C19.8337 14.7204 18.7895 13.7307 17.5003 13.7307H16.3337V5.99035C16.3337 4.76847 15.2895 3.77881 14.0003 3.77881H7.00033C5.71116 3.77881 4.66699 4.76847 4.66699 5.99035V23.6827H16.3337V15.3894H18.0837V20.9182C18.0837 22.4442 19.3903 23.6827 21.0003 23.6827C22.6103 23.6827 23.917 22.4442 23.917 20.9182V10.4134C23.917 9.65044 23.5903 8.95934 23.0653 8.45621ZM14.0003 11.5192H7.00033V5.99035H14.0003V11.5192ZM21.0003 11.5192C20.3587 11.5192 19.8337 11.0216 19.8337 10.4134C19.8337 9.80525 20.3587 9.30765 21.0003 9.30765C21.642 9.30765 22.167 9.80525 22.167 10.4134C22.167 11.0216 21.642 11.5192 21.0003 11.5192Z" fill="#8186F8"/>
</svg>
