<svg width="24" height="24" viewBox="0 0 24 24" fill="none" xmlns="http://www.w3.org/2000/svg">
<path d="M13.2979 23.1022H10.7463C10.0445 23.1022 9.47355 22.5314 9.47355 21.8298V19.3032C8.57022 18.9857 7.71963 18.4936 6.99025 17.8668L4.79819 19.132C4.60572 19.2427 4.387 19.301 4.16524 19.3011C3.71041 19.3011 3.28741 19.0586 3.06133 18.6683L1.7846 16.4565C1.43505 15.8502 1.64378 15.0714 2.24983 14.7203L4.44082 13.4566C4.35161 12.9845 4.30642 12.5031 4.30642 12.0222C4.30642 11.5414 4.35157 11.06 4.44082 10.5879L2.25035 9.32457C1.64228 8.97226 1.43364 8.19221 1.78474 7.58532L3.06114 5.37652C3.28778 4.98526 3.71078 4.74244 4.16519 4.74244C4.38752 4.74244 4.60661 4.80137 4.7988 4.91284L6.99039 6.17593C7.72052 5.55001 8.57121 5.05857 9.47355 4.74137V2.2148C9.47355 1.51318 10.0445 0.942383 10.7463 0.942383H13.2979C13.9998 0.942383 14.5708 1.51318 14.5708 2.2148V4.74132C15.4775 5.05974 16.3283 5.55104 17.0544 6.1757L19.2463 4.91237C19.4383 4.80132 19.6574 4.74244 19.8796 4.74244C20.334 4.74244 20.7565 4.98549 20.9823 5.37671L22.2596 7.58537C22.6101 8.19366 22.4013 8.97357 21.7943 9.32443L19.6034 10.5879C19.692 11.0577 19.7368 11.5391 19.7368 12.0223C19.7368 12.5092 19.6922 12.9907 19.6038 13.4568L21.794 14.72C22.0863 14.8874 22.2966 15.1606 22.3852 15.4886C22.4741 15.8182 22.4297 16.1619 22.2598 16.4564L20.9833 18.6679C20.757 19.0586 20.3342 19.3011 19.8797 19.3011C19.658 19.3011 19.4392 19.2428 19.2469 19.1325L17.0543 17.8669C16.3253 18.494 15.4746 18.9855 14.5709 19.3015V21.8298C14.5708 22.5314 13.9998 23.1022 13.2979 23.1022ZM7.02911 17.1669C7.1058 17.1669 7.18188 17.1949 7.24127 17.2492C7.99797 17.9405 8.91147 18.4689 9.88305 18.7771C10.0137 18.8186 10.1024 18.9399 10.1024 19.0769V21.8298C10.1024 22.1846 10.3913 22.4733 10.7463 22.4733H13.2979C13.653 22.4733 13.9419 22.1847 13.9419 21.8298V19.0748C13.9419 18.9376 14.0309 18.8161 14.1618 18.7749C15.1335 18.4685 16.0468 17.941 16.8029 17.2494C16.9041 17.1568 17.0536 17.1405 17.1723 17.209L19.5605 18.5875C19.657 18.6428 19.7675 18.6723 19.8796 18.6723C20.1105 18.6722 20.3248 18.55 20.4388 18.3532L21.7151 16.1423C21.8007 15.9937 21.8231 15.8198 21.778 15.6528C21.7333 15.4872 21.6277 15.3496 21.4806 15.2654L19.0929 13.8883C18.9739 13.8196 18.9132 13.6816 18.9431 13.5475C19.0525 13.0561 19.108 12.543 19.108 12.0224C19.108 11.5066 19.0525 10.9932 18.943 10.4966C18.9134 10.3627 18.9741 10.225 19.0929 10.1565L21.4798 8.77988C21.7867 8.60255 21.8923 8.20768 21.715 7.8999L20.4378 5.69143C20.3238 5.49395 20.11 5.37146 19.8797 5.37146C19.768 5.37146 19.6578 5.40109 19.5609 5.4571L17.1723 6.83382C17.0535 6.90226 16.9041 6.88585 16.8029 6.79332C16.0507 6.10487 15.1373 5.57734 14.1613 5.26763C14.0307 5.22615 13.942 5.10488 13.942 4.96787V2.21485C13.942 1.86005 13.6531 1.5713 13.298 1.5713H10.7463C10.3913 1.5713 10.1025 1.86001 10.1025 2.21485V4.96777C10.1025 5.10479 10.0137 5.22605 9.8831 5.26754C8.9125 5.57546 7.99891 6.10323 7.24094 6.79374C7.13983 6.88595 6.99067 6.90207 6.87217 6.83377L4.48399 5.45738C4.38682 5.40099 4.27685 5.37141 4.16519 5.37141C3.93438 5.37141 3.71988 5.49409 3.6055 5.69157L2.32919 7.90023C2.15158 8.20726 2.25743 8.60195 2.56511 8.78016L4.95147 10.1564C5.0703 10.2249 5.131 10.3626 5.10147 10.4965C4.99127 10.9963 4.93544 11.5096 4.93544 12.0223C4.93544 12.535 4.99132 13.0484 5.10147 13.5481C5.131 13.682 5.0703 13.8197 4.95152 13.8882L2.56464 15.2649C2.25855 15.4421 2.1528 15.836 2.32943 16.1424L3.60578 18.3535C3.7196 18.5499 3.93405 18.6722 4.16528 18.6722C4.27722 18.6722 4.38757 18.6428 4.48436 18.5872L6.87208 17.209C6.92097 17.1806 6.97521 17.1669 7.02911 17.1669Z" fill="white"/>
<path d="M12.0233 15.8328C9.92062 15.8328 8.20996 14.1235 8.20996 12.0224C8.20996 9.92145 9.92062 8.21216 12.0233 8.21216C14.1253 8.21216 15.8353 9.92145 15.8353 12.0224C15.8353 14.1235 14.1253 15.8328 12.0233 15.8328ZM12.0233 8.84099C10.2674 8.84099 8.83888 10.2681 8.83888 12.0224C8.83888 13.7766 10.2674 15.2038 12.0233 15.2038C13.7785 15.2038 15.2064 13.7766 15.2064 12.0224C15.2064 10.2681 13.7785 8.84099 12.0233 8.84099Z" fill="white"/>
</svg>
