<svg width="36" height="36" viewBox="0 0 36 36" fill="none" xmlns="http://www.w3.org/2000/svg">
<path d="M30.8613 10.6258C30.0484 11.0032 29.1194 11.2355 28.2484 11.3806C28.6839 11.3226 29.2936 10.5387 29.5549 10.2484C29.9323 9.78385 30.2517 9.23224 30.4259 8.65159C30.4549 8.59353 30.4549 8.53546 30.4259 8.50643C30.3678 8.4774 30.3388 8.50643 30.2807 8.50643C29.2936 9.02901 28.2775 9.43546 27.1742 9.69675C27.0871 9.72579 27.0291 9.69675 26.971 9.63869C26.8839 9.52256 26.7968 9.43546 26.7097 9.34837C26.2452 8.97095 25.7517 8.65159 25.2 8.41933C24.4742 8.12901 23.6613 7.98385 22.8775 8.04191C22.1226 8.09998 21.3678 8.3032 20.7 8.65159C20.0323 8.99998 19.4226 9.49353 18.9291 10.1032C18.4355 10.7129 18.0581 11.4387 17.8839 12.2226C17.7097 12.9774 17.7097 13.7032 17.8259 14.458C17.8549 14.5742 17.8259 14.6032 17.7097 14.5742C13.4129 13.9645 9.87101 12.4548 6.99682 9.17417C6.88069 9.02901 6.79359 9.02901 6.7065 9.17417C5.45811 11.0613 6.06779 14.0806 7.63553 15.5903C7.83876 15.7935 8.07101 15.9968 8.30327 16.1709C8.21618 16.2 7.17101 16.0838 6.24198 15.5903C6.12585 15.5032 6.06779 15.5613 6.03876 15.7064C6.03876 15.9097 6.03876 16.0838 6.06779 16.3161C6.30005 18.2322 7.63553 20.0032 9.43553 20.6709C9.63876 20.758 9.90005 20.8451 10.1323 20.8742C9.72585 20.9613 9.29037 21.0193 8.10005 20.9322C7.95489 20.9032 7.89682 20.9903 7.95489 21.1064C8.82585 23.5451 10.742 24.2709 12.1936 24.6774C12.3968 24.7064 12.571 24.7064 12.7742 24.7645C12.7742 24.7935 12.7452 24.7935 12.7452 24.7935C12.2807 25.5193 10.6259 26.0709 9.84198 26.3322C8.44843 26.8258 6.90972 27.029 5.42908 26.8839C5.19682 26.8548 5.13876 26.8548 5.08069 26.8839C5.02263 26.9129 5.08069 26.9709 5.13876 27.029C5.42908 27.2322 5.74843 27.4064 6.06779 27.5806C6.99682 28.0742 7.98392 28.4806 9.00005 28.7709C14.2839 30.2226 20.2646 29.1484 24.242 25.2C27.3484 22.1226 28.4517 17.8548 28.4517 13.558C28.4517 13.3838 28.6549 13.2968 28.771 13.2097C29.5839 12.6 30.2226 11.8742 30.8323 11.0613C30.9775 10.8871 30.9484 10.7129 30.9484 10.6548V10.6258C30.9484 10.5677 30.9775 10.5677 30.8613 10.6258Z" fill="white"/>
<path fill-rule="evenodd" clip-rule="evenodd" d="M12.7451 29.3227C12.8322 29.3227 14.9225 29.3227 12.7451 29.3227C12.7161 29.3227 13.0354 29.3227 12.7451 29.3227ZM12.7451 29.3227C12.3096 29.3227 12.7161 29.3227 12.7451 29.3227V29.3227ZM13.6161 29.3517C13.6161 29.2936 14.0806 29.3517 13.6161 29.3517C13.6161 29.3227 13.6741 29.3517 13.6161 29.3517ZM22.7902 8.1001C22.7612 8.12913 22.7322 8.12913 22.6741 8.1001C22.7031 8.1001 22.7612 8.1001 22.7902 8.1001Z" fill="white"/>
</svg>
