<svg width="256" height="256" viewBox="0 0 256 256" fill="none" xmlns="http://www.w3.org/2000/svg">
<path d="M59.9051 248.477C58.3941 248.477 56.9842 248.117 55.7268 247.392C52.7636 245.687 51.1331 242.227 51.1331 237.653L50.793 125.091C50.7911 124.631 50.9989 124.198 51.3573 123.911C51.7176 123.62 52.1827 123.514 52.6349 123.62L103.835 135.33C104.245 135.422 104.596 135.683 104.806 136.051C105.015 136.415 105.061 136.848 104.935 137.253C103.9 140.521 103.135 143.815 102.65 147.084L105.569 145.392C107.282 144.407 109.028 144.29 110.37 145.073C111.718 145.852 112.458 147.367 112.458 149.334C112.458 152.797 110.109 156.863 107.109 158.584L102.484 161.275C103.598 169.124 107.048 175.065 112.26 178.069C117.51 181.091 124.451 181.084 131.885 178.076V172.676C131.885 169.238 134.23 165.176 137.225 163.429C138.942 162.437 140.69 162.323 142.032 163.106C143.379 163.885 144.12 165.4 144.12 167.367V170.701C158.855 158.955 170.361 139.051 173.155 120.466L170.214 122.176C168.528 123.157 166.789 123.264 165.436 122.495C164.093 121.72 163.321 120.168 163.321 118.238C163.321 114.775 165.666 110.698 168.661 108.955L173.328 106.256C172.776 102.459 171.743 99.1939 170.253 96.5395C169.966 96.0248 170.001 95.3961 170.344 94.9182L219.135 27.2638C219.517 26.738 220.194 26.5211 220.817 26.7123C221.438 26.9108 221.859 27.488 221.861 28.1424L222.162 140.709C222.203 149.642 216.118 160.187 208.311 164.716L66.5669 246.451C64.2489 247.797 61.9805 248.477 59.9051 248.477ZM53.8095 126.977L54.1441 237.65C54.1441 241.106 55.2397 243.635 57.2305 244.782C59.2433 245.937 62.0209 245.606 65.0595 243.845L206.804 162.109C213.644 158.139 219.186 148.543 219.151 140.72L218.863 32.7932L173.335 95.9182C174.894 98.9844 175.94 102.665 176.447 106.878C176.521 107.477 176.229 108.062 175.707 108.363L170.172 111.562C168.093 112.771 166.332 115.83 166.332 118.238C166.332 119.051 166.56 119.665 166.938 119.881C167.332 120.113 167.984 119.988 168.699 119.573L174.271 116.334C174.76 116.047 175.368 116.058 175.843 116.37C176.319 116.676 176.583 117.223 176.526 117.786C174.405 138.97 160.822 162.477 143.495 174.951C143.037 175.286 142.429 175.33 141.929 175.073C141.425 174.812 141.109 174.297 141.109 173.731V167.367C141.109 166.543 140.889 165.922 140.521 165.709C140.142 165.495 139.471 165.613 138.732 166.036C136.694 167.227 134.896 170.33 134.896 172.676V179.076C134.896 179.676 134.541 180.216 133.992 180.459C125.317 184.234 117.069 184.308 110.756 180.679C104.484 177.065 100.438 169.951 99.3665 160.65C99.2985 160.054 99.5889 159.477 100.105 159.176L105.602 155.977C107.69 154.778 109.447 151.738 109.447 149.334C109.447 148.51 109.227 147.889 108.861 147.676C108.48 147.466 107.815 147.584 107.071 148.003L101.541 151.205C101.054 151.484 100.449 151.473 99.9731 151.168C99.4989 150.863 99.2342 150.315 99.2893 149.756C99.668 145.834 100.44 141.856 101.589 137.903L53.8095 126.977Z" fill="black"/>
<path d="M56.4527 247.569C56.1972 247.569 55.938 247.503 55.7009 247.367L38.7542 237.558C35.8351 235.874 34.2009 232.418 34.1568 227.826L33.8369 115.231C33.8351 114.69 34.1218 114.194 34.5888 113.922C35.0557 113.653 35.6292 113.653 36.0998 113.925L53.0465 123.771C53.5079 124.039 53.7928 124.532 53.7946 125.069L54.1145 237.65C54.1494 241.087 55.2413 243.609 57.1899 244.749L57.2082 244.756C57.9288 245.175 58.1752 246.095 57.7579 246.815C57.4785 247.297 56.973 247.569 56.4527 247.569ZM36.8553 117.848L37.1678 227.808C37.2027 231.278 38.3002 233.819 40.2597 234.947L51.5741 241.495C51.2763 240.337 51.1163 239.054 51.1035 237.668L50.7855 125.94L36.8553 117.848ZM65.3884 103.929C65.1274 103.929 64.8663 103.859 64.6329 103.723L47.7285 93.9181C47.2634 93.6497 46.9766 93.1534 46.9785 92.6166C46.9785 92.0762 47.2652 91.5798 47.7321 91.3114L189.475 9.54674C193.497 7.2085 197.363 6.88865 200.359 8.62762L217.181 18.4254C217.212 18.4438 217.245 18.4622 217.276 18.4806C217.989 18.9034 218.227 19.8225 217.806 20.5357C217.39 21.2526 216.466 21.5026 215.751 21.0762L215.679 21.0357C213.732 19.9181 210.909 20.26 207.92 21.9659L66.1402 103.727C65.9086 103.859 65.6476 103.929 65.3884 103.929ZM51.4913 92.6203L65.3902 100.683L206.421 19.3519C207.666 18.6423 208.909 18.1203 210.114 17.7931L198.842 11.2306C196.822 10.0578 194.032 10.3813 190.984 12.1534L51.4913 92.6203Z" fill="black"/>
<path d="M52.3002 126.587C52.0391 126.587 51.7781 126.517 51.5447 126.381L34.6016 116.547C34.1384 116.278 33.8535 115.786 33.8516 115.249C33.8259 106.462 40.0428 95.716 47.7119 91.2932C48.1752 91.0285 48.7524 91.0248 49.2193 91.2969L66.1605 101.131C66.6255 101.4 66.9123 101.896 66.9105 102.437C66.9105 102.973 66.6237 103.47 66.1568 103.738C59.3241 107.679 53.7836 117.253 53.8057 125.076C53.8075 125.617 53.5208 126.113 53.0538 126.385C52.8204 126.517 52.5594 126.587 52.3002 126.587ZM36.8829 114.389L50.9491 122.554C51.8498 115.172 56.5777 107.014 62.5557 102.521L48.4822 94.352C42.2322 98.3778 37.2285 107.021 36.8829 114.389Z" fill="black"/>
<path d="M103.501 138.304C103.389 138.304 103.277 138.29 103.163 138.264L51.9623 126.554C51.2803 126.4 50.795 125.793 50.7931 125.095C50.7545 116.293 56.9696 105.54 64.6479 101.12L206.427 19.3521C210.435 17.0432 214.28 16.7123 217.255 18.4219C220.205 20.1204 221.841 23.5726 221.861 28.1388C221.863 28.4587 221.764 28.7675 221.576 29.0285L172.786 96.6829C172.484 97.1021 171.973 97.3153 171.471 97.3043C170.957 97.2712 170.494 96.9771 170.245 96.5249C165.253 87.4146 155.457 84.8337 143.931 89.4954V94.8594C143.931 98.3153 141.565 102.378 138.543 104.106C136.876 105.08 135.148 105.205 133.81 104.448C132.468 103.69 131.685 102.135 131.659 100.187V96.83C119.769 106.297 109.668 121.495 104.942 137.231C104.747 137.878 104.152 138.304 103.501 138.304ZM53.8409 123.896L102.473 135.017C107.878 118.12 119.209 101.959 132.288 92.58C132.744 92.2491 133.348 92.2013 133.852 92.466C134.354 92.7234 134.67 93.2381 134.67 93.8043V100.168C134.681 100.984 134.914 101.613 135.293 101.826C135.666 102.04 136.317 101.918 137.036 101.499C139.109 100.312 140.92 97.2124 140.92 94.8594V88.4954C140.92 87.8962 141.275 87.3521 141.826 87.1131C154.26 81.716 165.471 84.0285 171.666 93.0874L218.841 27.6719C218.729 24.466 217.641 22.1204 215.753 21.0359C213.749 19.8815 210.973 20.216 207.929 21.9623L66.1516 103.731C59.6498 107.47 54.3262 116.304 53.8409 123.896Z" fill="black"/>
<path d="M121.249 183.348C117.405 183.348 113.848 182.458 110.756 180.679C104.484 177.065 100.438 169.951 99.3667 160.65C99.2987 160.054 99.5891 159.477 100.106 159.175L105.602 155.977C107.69 154.778 109.448 151.738 109.448 149.333C109.448 148.51 109.227 147.889 108.861 147.675C108.481 147.466 107.815 147.583 107.071 148.003L101.541 151.205C101.054 151.484 100.448 151.477 99.9715 151.164C99.4972 150.859 99.2343 150.315 99.2895 149.753C101.372 128.543 114.94 105.032 132.286 92.5798C132.744 92.2489 133.348 92.2011 133.852 92.4658C134.354 92.7232 134.67 93.2379 134.67 93.8041V100.168C134.681 100.984 134.914 101.613 135.293 101.826C135.666 102.039 136.317 101.918 137.036 101.499C139.109 100.311 140.92 97.2122 140.92 94.8592V88.4953C140.92 87.896 141.275 87.3519 141.826 87.1129C150.517 83.3372 158.78 83.2636 165.084 86.8923C171.341 90.5026 175.378 97.6019 176.449 106.885C176.517 107.481 176.227 108.061 175.707 108.363L170.172 111.561C168.093 112.771 166.332 115.83 166.332 118.238C166.332 119.05 166.56 119.664 166.938 119.881C167.332 120.113 167.984 119.988 168.699 119.572L174.271 116.333C174.76 116.047 175.369 116.058 175.843 116.37C176.319 116.675 176.584 117.223 176.527 117.786C174.405 138.97 160.823 162.477 143.495 174.951C143.038 175.286 142.429 175.33 141.929 175.072C141.425 174.811 141.109 174.297 141.109 173.731V167.367C141.109 166.543 140.889 165.922 140.521 165.708C140.142 165.495 139.471 165.613 138.732 166.036C136.694 167.227 134.896 170.33 134.896 172.675V179.076C134.896 179.675 134.541 180.216 133.992 180.458C129.567 182.385 125.253 183.348 121.249 183.348ZM102.484 161.275C103.598 169.124 107.049 175.065 112.26 178.069C117.51 181.091 124.451 181.083 131.885 178.076V172.675C131.885 169.238 134.231 165.175 137.225 163.429C138.942 162.436 140.69 162.322 142.032 163.106C143.38 163.885 144.12 165.4 144.12 167.367V170.701C158.856 158.955 170.361 139.05 173.155 120.466L170.214 122.175C168.528 123.157 166.789 123.264 165.437 122.495C164.093 121.72 163.321 120.168 163.321 118.238C163.321 114.775 165.666 110.697 168.661 108.955L173.332 106.256C172.218 98.4254 168.775 92.4989 163.578 89.5026C158.332 86.4842 151.383 86.4916 143.931 89.4953V94.8592C143.931 98.3151 141.565 102.378 138.543 104.106C136.876 105.08 135.148 105.205 133.81 104.447C132.468 103.69 131.685 102.135 131.659 100.186V96.8298C116.905 108.558 105.411 128.47 102.652 147.08L105.569 145.392C107.282 144.407 109.028 144.289 110.37 145.072C111.718 145.852 112.459 147.367 112.459 149.333C112.459 152.797 110.109 156.863 107.109 158.583L102.484 161.275Z" fill="black"/>
<path d="M132.049 152.179C130.536 152.179 129.124 151.823 127.867 151.098C124.906 149.392 123.268 145.937 123.257 141.359C123.231 132.554 129.442 121.793 137.102 117.37C141.112 115.058 144.955 114.723 147.933 116.44C150.893 118.142 152.529 121.602 152.542 126.183C152.567 134.988 146.354 145.749 138.692 150.172C136.38 151.506 134.119 152.179 132.049 152.179ZM138.61 119.981C131.782 123.922 126.246 133.51 126.268 141.352C126.277 144.808 127.378 147.341 129.369 148.488C131.378 149.639 134.156 149.319 137.187 147.562C144.016 143.62 149.553 134.036 149.531 126.19C149.52 122.731 148.42 120.194 146.431 119.051C144.428 117.896 141.65 118.227 138.61 119.981ZM135.737 104.951C135.036 104.951 134.373 104.786 133.786 104.448C132.448 103.679 131.678 102.124 131.674 100.183L131.635 86.6829C131.626 83.2197 133.977 79.1425 136.988 77.4035C138.68 76.4292 140.424 76.3042 141.768 77.08C143.106 77.8483 143.876 79.4035 143.88 81.3447L143.919 94.8483C143.928 98.3116 141.575 102.385 138.562 104.124C137.61 104.676 136.641 104.951 135.737 104.951ZM139.806 79.5836C139.442 79.5836 138.985 79.7307 138.496 80.0138C136.404 81.2197 134.641 84.2711 134.646 86.6755L134.685 100.176C134.687 100.999 134.913 101.62 135.288 101.837C135.67 102.062 136.328 101.937 137.056 101.514C139.115 100.33 140.913 97.216 140.907 94.8557L140.869 81.352C140.867 80.5285 140.641 79.9072 140.266 79.6903C140.141 79.6167 139.985 79.5836 139.806 79.5836ZM135.981 190.966C135.279 190.966 134.615 190.797 134.029 190.459C132.692 189.69 131.922 188.135 131.919 186.198L131.88 172.694C131.869 169.234 134.22 165.157 137.233 163.415C138.926 162.44 140.669 162.319 142.012 163.095C143.349 163.863 144.119 165.415 144.124 167.356L144.163 180.859C144.172 184.323 141.819 188.4 138.806 190.139C137.854 190.687 136.885 190.966 135.981 190.966ZM138.74 166.025C136.646 167.234 134.884 170.286 134.891 172.687L134.93 186.19C134.931 187.014 135.157 187.635 135.531 187.848C135.919 188.073 136.573 187.951 137.303 187.528C139.395 186.323 141.157 183.271 141.152 180.867L141.113 167.363C141.11 166.54 140.885 165.918 140.51 165.705C140.126 165.484 139.466 165.602 138.74 166.025ZM167.393 122.992C166.689 122.992 166.025 122.823 165.437 122.484C164.102 121.716 163.332 120.161 163.328 118.223C163.317 114.76 165.669 110.683 168.683 108.944L180.433 102.161C182.124 101.183 183.865 101.058 185.211 101.837C186.549 102.606 187.319 104.161 187.323 106.102C187.334 109.562 184.983 113.639 181.97 115.381L170.22 122.165C169.266 122.712 168.295 122.992 167.393 122.992ZM183.249 104.341C182.887 104.341 182.428 104.488 181.941 104.771L170.189 111.554C168.13 112.742 166.332 115.852 166.339 118.216C166.341 119.04 166.567 119.661 166.941 119.874C167.327 120.098 167.987 119.977 168.714 119.554L180.463 112.771C182.556 111.562 184.319 108.51 184.312 106.109C184.31 105.286 184.084 104.665 183.709 104.448C183.584 104.374 183.428 104.341 183.249 104.341ZM92.538 166.209C91.834 166.209 91.1704 166.04 90.5821 165.701C89.2476 164.933 88.4773 163.378 88.4737 161.44C88.4626 157.981 90.8137 153.903 93.8266 152.161L105.578 145.378C107.268 144.396 109.009 144.278 110.356 145.054C111.692 145.823 112.464 147.378 112.47 149.319C112.479 152.782 110.126 156.856 107.115 158.598L95.3652 165.381C94.4112 165.929 93.4406 166.209 92.538 166.209ZM108.396 147.558C108.032 147.558 107.573 147.705 107.086 147.988L95.334 154.771C93.2402 155.981 91.4773 159.032 91.4847 161.433C91.4865 162.256 91.7126 162.878 92.0858 163.091C92.47 163.312 93.1299 163.19 93.8597 162.771L105.608 155.988C107.702 154.778 109.464 151.727 109.459 149.326C109.455 148.503 109.231 147.881 108.854 147.665C108.729 147.591 108.573 147.558 108.396 147.558Z" fill="black"/>
</svg>
