<svg width="26" height="26" viewBox="0 0 26 26" fill="none" xmlns="http://www.w3.org/2000/svg">
<g clip-path="url(#clip0_207_12)">
<path d="M1 4.05864V19.1859C1 19.6317 1.18262 20.0592 1.50768 20.3744C1.83274 20.6896 2.27362 20.8667 2.73333 20.8667H23.5333C23.993 20.8667 24.4339 20.6896 24.759 20.3744C25.084 20.0592 25.2667 19.6317 25.2667 19.1859V5.73945C25.2667 5.29367 25.084 4.86615 24.759 4.55093C24.4339 4.23572 23.993 4.05864 23.5333 4.05864H5.33333M1 4.05864V2.37783C1 1.93205 1.18262 1.50453 1.50768 1.18932C1.83274 0.874106 2.27362 0.697021 2.73333 0.697021H16.6C17.0597 0.697021 17.5006 0.874106 17.8257 1.18932C18.1507 1.50453 18.3333 1.93205 18.3333 2.37783V4.05864H5.33333M1 4.05864H5.33333M15.7333 14.1435H20.9333" stroke="black" stroke-width="1.73333"/>
</g>
<defs>
<clipPath id="clip0_207_12">
<path d="M0 0H22C24.2091 0 26 1.79086 26 4V21.2121C26 23.4213 24.2091 25.2121 22 25.2121H0V0Z" fill="white"/>
</clipPath>
</defs>
</svg>
