<svg width="25" height="25" viewBox="0 0 25 25" fill="none" xmlns="http://www.w3.org/2000/svg">
<path d="M2.73438 2.72192C2.63077 2.72192 2.53142 2.76308 2.45816 2.83634C2.38491 2.90959 2.34375 3.00895 2.34375 3.11255V16.3938C2.34375 16.4974 2.38491 16.5968 2.45816 16.67C2.53142 16.7433 2.63077 16.7844 2.73438 16.7844H6.25V21.8876C6.25 21.9704 6.27638 22.0512 6.3253 22.1181C6.37423 22.185 6.44317 22.2346 6.52215 22.2598C6.60114 22.2849 6.68607 22.2843 6.76467 22.2579C6.84327 22.2316 6.91146 22.181 6.95937 22.1133L10.7242 16.7852H22.2656C22.3692 16.7852 22.4686 16.7441 22.5418 16.6708C22.6151 16.5975 22.6562 16.4982 22.6562 16.3946V3.11333C22.6562 3.00973 22.6151 2.91037 22.5418 2.83712C22.4686 2.76386 22.3692 2.72271 22.2656 2.72271L2.73438 2.72192ZM3.125 3.50317H21.875V16.0032H10.5211C10.4585 16.0034 10.3969 16.0186 10.3414 16.0475C10.286 16.0765 10.2383 16.1183 10.2023 16.1696L7.03125 20.6586V16.3938C7.03125 16.2902 6.9901 16.1908 6.91684 16.1176C6.84358 16.0443 6.74423 16.0032 6.64062 16.0032H3.125V3.50317ZM4.6875 5.07817V5.85942H20.3125V5.07817H4.6875ZM4.6875 7.42192V8.20317H20.3125V7.42192H4.6875ZM4.6875 9.76567V10.5469H20.3125V9.76567H4.6875ZM4.6875 12.1094V12.8907H12.5V12.1094H4.6875Z" fill="black"/>
</svg>
