<svg width="25" height="25" viewBox="0 0 25 25" fill="none" xmlns="http://www.w3.org/2000/svg">
<g clip-path="url(#clip0_209_108)">
<path d="M3.33301 24.1666H21.6663M12.4997 17.4999V24.1666M0.833008 2.49992V15.8333C0.833008 16.2753 1.0086 16.6992 1.32116 17.0118C1.63372 17.3243 2.05765 17.4999 2.49967 17.4999H22.4997C22.9417 17.4999 23.3656 17.3243 23.6782 17.0118C23.9907 16.6992 24.1663 16.2753 24.1663 15.8333V2.49992C24.1663 2.05789 23.9907 1.63397 23.6782 1.32141C23.3656 1.00885 22.9417 0.833252 22.4997 0.833252H2.49967C2.05765 0.833252 1.63372 1.00885 1.32116 1.32141C1.0086 1.63397 0.833008 2.05789 0.833008 2.49992Z" stroke="black"/>
</g>
<defs>
<clipPath id="clip0_209_108">
<rect width="25" height="25" fill="white"/>
</clipPath>
</defs>
</svg>
