<svg width="26" height="26" viewBox="0 0 26 26" fill="none" xmlns="http://www.w3.org/2000/svg">
<g clip-path="url(#clip0_207_2)">
<path d="M18.1997 6.06328C18.1994 6.74593 18.0648 7.42185 17.8033 8.05244C17.5419 8.68304 17.1588 9.25596 16.6759 9.73851C16.193 10.221 15.6199 10.6038 14.9891 10.8648C14.3583 11.1258 13.6823 11.26 12.9997 11.2598C11.9716 11.2595 10.9666 10.9543 10.112 10.3828C9.2573 9.81131 8.5913 8.99923 8.19817 8.04924C7.80504 7.09925 7.70245 6.05402 7.90336 5.04572C8.10428 4.03742 8.59967 3.11134 9.3269 2.3846C10.0541 1.65785 10.9805 1.16307 11.989 0.962829C12.9974 0.762589 14.0426 0.86588 14.9923 1.25964C15.942 1.6534 16.7537 2.31995 17.3246 3.17499C17.8955 4.03003 18.2 5.03516 18.1997 6.06328ZM21.6663 25.1161H4.33301V21.6564C4.33301 20.2772 4.88086 18.9546 5.85605 17.9794C6.83124 17.0042 8.15388 16.4564 9.53301 16.4564H16.4663C17.8455 16.4564 19.1681 17.0042 20.1433 17.9794C21.1185 18.9546 21.6663 20.2772 21.6663 21.6564V25.1178V25.1161Z" stroke="black" stroke-width="1.73333" stroke-linecap="square"/>
</g>
<defs>
<clipPath id="clip0_207_2">
<rect width="26" height="26" rx="4" fill="white"/>
</clipPath>
</defs>
</svg>
