<svg width="35" height="35" viewBox="0 0 35 35" fill="none" xmlns="http://www.w3.org/2000/svg">
<g clip-path="url(#clip0_379_165)">
<mask id="mask0_379_165" style="mask-type:luminance" maskUnits="userSpaceOnUse" x="0" y="0" width="35" height="35">
<path d="M34.8223 0H0.150391V35H34.8223V0Z" fill="white"/>
</mask>
<g mask="url(#mask0_379_165)">
<path fill-rule="evenodd" clip-rule="evenodd" d="M6.38476 5.46875C5.83789 2.625 8.02538 0 10.8691 0C13.3848 0 15.4629 2.07812 15.4629 4.59375V10.2812C16.1191 10.2812 16.7754 10.1719 17.4316 10.1719C18.0879 10.1719 18.6348 10.1719 19.291 10.2812V4.59375C19.291 2.07812 21.3691 0 23.8848 0C26.7285 0 28.916 2.625 28.4785 5.46875L27.2754 12.1406C31.541 14 34.8223 17.2812 34.8223 21.3281V23.8438C34.8223 27.2344 32.6348 30.0781 29.4629 31.9375C26.291 33.9062 22.1348 35 17.4316 35C12.7285 35 8.57226 33.9062 5.40039 31.9375C2.33789 30.0781 0.150391 27.2344 0.150391 23.8438V21.3281C0.150391 17.2812 3.32226 14 7.58788 12.1406L6.38476 5.46875ZM25.6348 13.0156L27.0566 5.14062C27.3848 3.17187 25.9629 1.3125 23.8848 1.3125C22.1348 1.3125 20.7129 2.73437 20.7129 4.48438V11.7031C20.2754 11.5938 19.7285 11.5938 19.291 11.5938C18.6348 11.5938 18.0879 11.4844 17.4316 11.4844C16.7754 11.4844 16.1191 11.4844 15.4629 11.5938C15.0254 11.5938 14.4785 11.7031 14.041 11.7031V4.59375C14.041 2.84375 12.6191 1.42188 10.8691 1.42188C8.90038 1.42188 7.36913 3.28125 7.80663 5.25L9.22851 13.125C4.63476 14.875 1.57226 17.9375 1.57226 21.4375V23.9531C1.57226 29.3125 8.68163 33.6875 17.4316 33.6875C26.1816 33.6875 33.291 29.3125 33.291 23.9531V21.4375C33.4004 17.8281 30.3379 14.7656 25.6348 13.0156Z" fill="#633001"/>
<path d="M33.4004 23.8437C33.4004 29.2031 26.291 33.5781 17.541 33.5781C8.79105 33.5781 1.68164 29.2031 1.68164 23.8437V21.3281H33.5098V23.8437H33.4004Z" fill="#FEDC90"/>
<path fill-rule="evenodd" clip-rule="evenodd" d="M7.80667 5.25C7.36917 3.28125 8.90042 1.42188 10.8692 1.42188C12.6192 1.42188 14.041 2.84375 14.041 4.59375V11.8125C15.1348 11.7031 16.2285 11.5938 17.4317 11.5938C18.5254 11.5938 19.6192 11.7031 20.7129 11.8125V4.59375C20.7129 2.84375 22.1348 1.42188 23.8848 1.42188C25.8535 1.42188 27.3848 3.28125 27.0567 5.25L25.6348 13.125C30.2285 14.875 33.4004 17.9375 33.4004 21.4375C33.4004 26.7969 26.291 31.1719 17.541 31.1719C8.79105 31.1719 1.68164 26.7969 1.68164 21.4375C1.68164 17.9375 4.74414 14.875 9.33792 13.125L7.80667 5.25Z" fill="#D1884F"/>
<path d="M13.0566 20.6719C13.0566 22.0937 12.291 23.2969 11.3066 23.2969C10.3223 23.2969 9.55664 22.0937 9.55664 20.6719C9.55664 19.25 10.3223 18.0469 11.3066 18.0469C12.291 18.0469 13.0566 19.25 13.0566 20.6719ZM25.1972 20.6719C25.1972 22.0937 24.4316 23.2969 23.4472 23.2969C22.4628 23.2969 21.6972 22.0937 21.6972 20.6719C21.6972 19.25 22.4628 18.0469 23.4472 18.0469C24.4316 18.0469 25.1972 19.25 25.1972 20.6719Z" fill="#633001"/>
</g>
</g>
<defs>
<clipPath id="clip0_379_165">
<rect width="35" height="35" fill="white"/>
</clipPath>
</defs>
</svg>
