<svg width="64" height="64" viewBox="0 0 64 64" fill="none" xmlns="http://www.w3.org/2000/svg">
<circle cx="32" cy="32" r="32" fill="white"/>
<mask id="mask0_379_187" style="mask-type:luminance" maskUnits="userSpaceOnUse" x="15" y="16" width="35" height="35">
<path d="M50 16H15V51H50V16Z" fill="white"/>
</mask>
<g mask="url(#mask0_379_187)">
<path d="M22.2913 19.3542L49.4163 37.8751L42.708 47.7918L15.583 29.1251L22.2913 19.3542Z" fill="url(#paint0_linear_379_187)"/>
<path d="M49.4161 37.875C47.0827 41.2292 39.2077 39.9167 31.7702 34.6667C24.1869 29.5625 20.1036 22.7084 22.291 19.3542C24.6244 16 32.4994 17.3125 39.9369 22.5625C47.5202 27.5208 51.6036 34.5208 49.4161 37.875Z" fill="url(#paint1_linear_379_187)"/>
<path d="M42.7076 47.6458C40.3743 51 32.4993 49.6875 25.0618 44.4375C17.6243 39.1875 13.3951 32.4792 15.7284 28.9792C18.0618 25.625 25.9368 26.9375 33.3743 32.1875C40.8118 37.4375 44.8951 44.2917 42.7076 47.6458Z" fill="url(#paint2_linear_379_187)"/>
<path d="M49.416 37.875L42.7077 47.7917C40.3744 51.1458 32.4994 49.6875 25.0619 44.5833C23.6035 43.5625 22.291 42.5417 20.9785 41.375C21.9994 41.2292 23.3119 40.6458 24.6244 39.1875C26.9577 36.7083 28.1244 36.125 29.1452 36.2708C30.166 36.2708 31.3327 37.2917 33.2285 39.7708C35.1244 42.25 37.7494 42.9792 39.3535 41.6667C39.4994 41.5208 39.6452 41.5208 39.791 41.375C41.1035 40.3542 41.541 39.9167 44.0202 35.25C44.6035 34.0833 46.6452 32.1875 49.416 33.0625C50.1452 34.9583 50.1452 36.5625 49.416 37.875Z" fill="#0E0F23"/>
<path fill-rule="evenodd" clip-rule="evenodd" d="M48.3948 37.2916C46.3531 40.2082 39.2073 38.7499 32.3531 33.9374C25.3531 29.1249 21.2698 22.9999 23.3115 20.0833C25.3531 17.1666 32.499 18.6249 39.3531 23.4374C46.2073 28.2499 50.2906 34.3749 48.3948 37.2916ZM41.9781 32.9166C40.9573 34.3749 37.4573 33.6457 33.9573 31.3124C30.6031 28.9791 28.5615 25.9166 29.5823 24.4582C30.6031 22.9999 34.1031 23.7291 37.6031 26.0624C40.9573 28.3957 42.999 31.4582 41.9781 32.9166Z" fill="white"/>
<path d="M21.7074 22.7084C21.7074 22.5626 21.5615 22.4168 21.4157 22.5626C21.2699 22.7084 21.124 22.7084 21.124 22.8543C21.2699 23.2918 21.4157 23.5834 21.4157 23.8751C21.4157 24.0209 21.5615 24.1668 21.7074 24.0209C21.8532 24.0209 21.999 23.8751 21.8532 23.7293C21.8532 23.4376 21.8532 23.1459 21.7074 22.7084ZM22.4365 25.0418C22.4365 24.8959 22.2907 24.7501 22.1448 24.8959C21.999 25.0418 21.999 25.0418 21.999 25.1876C23.6032 28.8334 26.9573 32.7709 31.3323 35.6876C31.4782 35.8334 31.624 35.6876 31.7698 35.6876C31.9157 35.5418 31.7698 35.3959 31.7698 35.2501C27.249 32.3334 24.0407 28.5418 22.4365 25.0418ZM40.0823 39.3334C39.9365 39.3334 39.7907 39.3334 39.7907 39.4793C39.7907 39.6251 39.7907 39.7709 39.9365 39.7709C40.374 39.9168 40.9573 40.0626 41.3948 40.2084C41.5407 40.2084 41.6865 40.2084 41.6865 40.0626C41.6865 39.9168 41.6865 39.7709 41.5407 39.7709C41.1032 39.6251 40.5198 39.4793 40.0823 39.3334ZM42.7073 39.9168C42.5615 39.9168 42.4157 40.0626 42.4157 40.2084C42.4157 40.3543 42.5615 40.5001 42.7073 40.5001C43.874 40.6459 45.1865 40.7918 46.2073 40.6459C46.3532 40.6459 46.499 40.5001 46.499 40.3543C46.499 40.2084 46.3532 40.0626 46.2073 40.0626C45.0407 40.2084 43.874 40.0626 42.7073 39.9168Z" fill="white"/>
</g>
<defs>
<linearGradient id="paint0_linear_379_187" x1="27.6058" y1="16.7209" x2="32.985" y2="35.1925" gradientUnits="userSpaceOnUse">
<stop stop-color="#03B8FF"/>
<stop offset="1" stop-color="#FA52A0"/>
</linearGradient>
<linearGradient id="paint1_linear_379_187" x1="32.0353" y1="15.4307" x2="37.4147" y2="33.9024" gradientUnits="userSpaceOnUse">
<stop stop-color="#03B8FF"/>
<stop offset="1" stop-color="#FA52A0"/>
</linearGradient>
<linearGradient id="paint2_linear_379_187" x1="23.1893" y1="18.0069" x2="28.5686" y2="36.4785" gradientUnits="userSpaceOnUse">
<stop stop-color="#03B8FF"/>
<stop offset="1" stop-color="#FA52A0"/>
</linearGradient>
</defs>
</svg>
