<svg width="35" height="35" viewBox="0 0 35 35" fill="none" xmlns="http://www.w3.org/2000/svg">
<mask id="mask0_379_143" style="mask-type:luminance" maskUnits="userSpaceOnUse" x="2" y="0" width="31" height="35">
<path d="M32.6789 0H2.28418V35H32.6789V0Z" fill="white"/>
</mask>
<g mask="url(#mask0_379_143)">
<path d="M14.2037 7.96447C13.8245 7.91027 13.8064 7.89222 13.9869 7.87417C14.3301 7.81996 15.1247 7.89222 15.6846 8.01862C16.9849 8.32569 18.1588 9.12029 19.4049 10.5109L19.73 10.8901L20.1996 10.8179C22.2042 10.4928 24.2631 10.7457 25.9788 11.5403C26.4482 11.7571 27.1887 12.1905 27.279 12.2988C27.3152 12.335 27.3693 12.5697 27.4055 12.8045C27.5319 13.6533 27.4777 14.2854 27.2068 14.773C27.0623 15.0439 27.0623 15.1162 27.1526 15.3509C27.2249 15.5315 27.4416 15.658 27.6402 15.658C28.0737 15.658 28.5251 14.9717 28.7419 14.0145L28.8322 13.6352L28.9947 13.8158C29.9158 14.8453 30.6382 16.272 30.7465 17.2834L30.7826 17.5543L30.6201 17.3195C30.3492 16.9041 30.0964 16.6332 29.7532 16.3984C29.1392 15.983 28.489 15.8566 26.7734 15.7663C25.2202 15.676 24.3353 15.5496 23.4684 15.2606C21.9875 14.773 21.229 14.1409 19.4772 11.8112C18.7006 10.7818 18.213 10.2219 17.7254 9.75241C16.6599 8.72299 15.5943 8.18117 14.2037 7.96447Z" fill="#FF007A"/>
<path d="M27.6579 10.2579C27.694 9.57164 27.7843 9.12013 27.983 8.70478C28.0552 8.54222 28.1275 8.39771 28.1455 8.39771C28.1636 8.39771 28.1275 8.52417 28.0733 8.66861C27.9288 9.06592 27.9108 9.62578 28.0011 10.2579C28.1275 11.0706 28.1817 11.179 29.0485 12.0639C29.4458 12.4792 29.9154 13.003 30.096 13.2197L30.403 13.617L30.096 13.3281C29.7168 12.9668 28.8499 12.2806 28.6512 12.1903C28.5248 12.118 28.5067 12.118 28.4164 12.2083C28.3442 12.2806 28.3261 12.3889 28.3261 12.9127C28.3081 13.7254 28.1997 14.2311 27.9288 14.7548C27.7843 15.0257 27.7663 14.9715 27.8927 14.6645C27.983 14.4297 28.0011 14.3214 28.0011 13.5448C28.0011 11.9736 27.8205 11.5943 26.7188 10.9622C26.4479 10.7997 25.9783 10.5649 25.7075 10.4385C25.4185 10.312 25.2018 10.2037 25.2198 10.2037C25.256 10.1676 26.3215 10.4746 26.7368 10.6552C27.369 10.9081 27.4773 10.9261 27.5496 10.9081C27.6037 10.8539 27.6399 10.7094 27.6579 10.2579ZM14.9438 12.9488C14.1853 11.9013 13.6977 10.2759 13.806 9.06592L13.8421 8.68666L14.0227 8.72282C14.3479 8.77696 14.9077 8.99373 15.1786 9.15622C15.901 9.58969 16.2261 10.1856 16.5331 11.6666C16.6234 12.1 16.7498 12.6057 16.804 12.7682C16.8943 13.0391 17.2374 13.6712 17.5264 14.0685C17.725 14.3575 17.5986 14.5019 17.1471 14.4658C16.4608 14.3936 15.5398 13.7615 14.9438 12.9488ZM26.7368 20.8049C23.161 19.3601 21.8968 18.1139 21.8968 16.0009C21.8968 15.6939 21.9149 15.441 21.9149 15.441C21.9329 15.441 22.0593 15.5495 22.2219 15.6759C22.9443 16.2538 23.757 16.5066 26.0145 16.8317C27.3329 17.0303 28.0913 17.1748 28.7776 17.4096C30.9629 18.132 32.3174 19.6129 32.6424 21.6175C32.7327 22.1954 32.6786 23.2971 32.5341 23.875C32.4077 24.3265 32.0464 25.1572 31.9561 25.1754C31.9381 25.1754 31.902 25.085 31.902 24.9405C31.8658 24.182 31.4866 23.4597 30.8545 22.8998C30.096 22.2496 29.1207 21.762 26.7368 20.8049ZM24.2085 21.4008C24.1724 21.1299 24.0821 20.7868 24.0279 20.6423L23.9376 20.3714L24.1001 20.57C24.3349 20.841 24.5155 21.1661 24.6781 21.6175C24.8045 21.9607 24.8045 22.069 24.8045 22.6289C24.8045 23.1707 24.7864 23.2971 24.6781 23.6041C24.4974 24.0917 24.2807 24.4349 23.9195 24.8141C23.2694 25.4824 22.4206 25.8436 21.2106 26.0061C20.9938 26.0242 20.3798 26.0783 19.838 26.1145C18.4835 26.1867 17.5805 26.3312 16.7678 26.6201C16.6595 26.6562 16.5512 26.6924 16.533 26.6743C16.4969 26.6382 17.0568 26.3131 17.5083 26.0964C18.1404 25.7894 18.7905 25.6268 20.2173 25.374C20.9216 25.2657 21.644 25.1211 21.8246 25.0489C23.6125 24.489 24.4974 23.0985 24.2085 21.4008Z" fill="#FF007A"/>
<path d="M25.8524 24.3087C25.3828 23.2793 25.2745 22.3041 25.5273 21.383C25.5634 21.2927 25.5995 21.2024 25.6356 21.2024C25.6718 21.2024 25.7801 21.2565 25.8885 21.3288C26.1052 21.4733 26.5567 21.7261 27.7125 22.3582C29.1754 23.1528 30.0061 23.7669 30.584 24.4712C31.0897 25.0853 31.3967 25.7896 31.5412 26.6564C31.6315 27.1441 31.5773 28.318 31.4509 28.8056C31.0536 30.3407 30.1506 31.5688 28.8322 32.2731C28.6336 32.3814 28.471 32.4537 28.453 32.4537C28.4349 32.4537 28.5072 32.2731 28.6155 32.0564C29.0489 31.1353 29.1031 30.2504 28.778 29.2571C28.5794 28.643 28.164 27.9026 27.3332 26.6564C26.34 25.2117 26.1052 24.8324 25.8524 24.3087ZM12.3978 29.835C13.7342 28.7153 15.3777 27.9207 16.8947 27.6678C17.5449 27.5595 18.6284 27.5956 19.2244 27.7581C20.1816 28.0109 21.0485 28.5527 21.4999 29.2209C21.9334 29.8711 22.1321 30.431 22.3307 31.6771C22.403 32.1647 22.4933 32.6704 22.5113 32.7788C22.6558 33.4289 22.9448 33.9346 23.3059 34.2055C23.8658 34.6209 24.841 34.6389 25.7982 34.2777C25.9607 34.2236 26.1052 34.1693 26.1052 34.1874C26.1413 34.2236 25.6537 34.5486 25.3287 34.7112C24.8772 34.9459 24.5159 35.0182 24.0283 35.0182C23.1615 35.0182 22.421 34.5667 21.825 33.6637C21.6986 33.4831 21.4458 32.9594 21.229 32.4717C20.597 31.0089 20.2719 30.5754 19.5315 30.0878C18.8813 29.6725 18.0505 29.5822 17.4184 29.8892C16.5877 30.2865 16.3709 31.3521 16.9488 32.0022C17.1837 32.2731 17.6171 32.4898 17.9783 32.544C18.6465 32.6343 19.2244 32.1106 19.2244 31.4424C19.2244 31.0089 19.0619 30.756 18.6284 30.5574C18.0505 30.3046 17.4184 30.5935 17.4365 31.1534C17.4365 31.3881 17.5449 31.5326 17.7796 31.641C17.9241 31.7132 17.9241 31.7132 17.8158 31.6951C17.292 31.5868 17.1656 30.9366 17.581 30.5213C18.0866 30.0156 19.1522 30.2323 19.5133 30.9366C19.6579 31.2256 19.6759 31.8035 19.5495 32.1647C19.2425 32.9594 18.3756 33.3747 17.4907 33.1399C16.8947 32.9774 16.6418 32.8149 15.9195 32.0744C14.6552 30.7741 14.1676 30.5213 12.3617 30.2504L12.0186 30.1962L12.3978 29.835Z" fill="#FF007A"/>
<path fill-rule="evenodd" clip-rule="evenodd" d="M2.89804 0.776576C7.10598 5.88751 13.5895 13.8338 13.9146 14.2673C14.1854 14.6285 14.0771 14.9716 13.6256 15.2245C13.3728 15.369 12.849 15.5134 12.5962 15.5134C12.3073 15.5134 11.9641 15.369 11.7293 15.1342C11.5668 14.9716 10.8624 13.9422 9.27319 11.468C8.06316 9.57175 7.03375 8.00051 7.01569 7.98246C6.94345 7.94637 6.94345 7.94637 9.14672 11.8834C10.5374 14.3576 10.9889 15.2425 10.9889 15.3508C10.9889 15.5857 10.9166 15.7121 10.6277 16.0372C10.1401 16.5789 9.92335 17.193 9.7608 18.4752C9.58019 19.9019 9.09258 20.9133 7.70196 22.629C6.88927 23.6404 6.76285 23.8209 6.56419 24.2363C6.31135 24.742 6.23911 25.0309 6.20299 25.6811C6.16688 26.3674 6.23911 26.8008 6.43777 27.451C6.61837 28.0289 6.81703 28.4082 7.30464 29.1486C7.72002 29.7987 7.97286 30.2863 7.97286 30.467C7.97286 30.6115 8.00898 30.6115 8.65914 30.467C10.2123 30.1058 11.4945 29.4917 12.1988 28.7332C12.6323 28.2637 12.7406 28.0109 12.7406 27.3607C12.7406 26.9453 12.7226 26.855 12.6143 26.6022C12.4336 26.2049 12.0905 25.8798 11.3501 25.3741C10.3748 24.7059 9.95945 24.1641 9.8511 23.4417C9.7608 22.8277 9.86915 22.4123 10.411 21.2745C10.9708 20.1006 11.1153 19.613 11.2056 18.4211C11.2598 17.6626 11.3501 17.3555 11.5668 17.1207C11.8015 16.8679 12.0002 16.7776 12.56 16.7054C13.4811 16.5789 14.0771 16.3442 14.5466 15.8927C14.9621 15.5134 15.1426 15.1342 15.1607 14.5743L15.1788 14.1589L14.9439 13.9061C14.0951 12.9309 2.33819 0 2.28401 0C2.26595 0 2.5549 0.343137 2.89804 0.776576ZM8.44242 26.4577C8.64108 26.1146 8.53271 25.6811 8.20764 25.4644C7.90062 25.2658 7.43107 25.3561 7.43107 25.6269C7.43107 25.6992 7.46718 25.7714 7.57555 25.8075C7.73808 25.8978 7.75614 25.9881 7.62972 26.1868C7.5033 26.3854 7.5033 26.566 7.66584 26.6925C7.91868 26.8911 8.26182 26.7828 8.44242 26.4577ZM15.7567 16.9582C15.3233 17.0846 14.9078 17.5542 14.7814 18.0238C14.7092 18.3127 14.7454 18.8364 14.8718 18.999C15.0704 19.2518 15.251 19.324 15.7567 19.324C16.75 19.324 17.5988 18.8906 17.6891 18.3669C17.7794 17.9335 17.4002 17.3374 16.8764 17.0665C16.6055 16.9221 16.0456 16.8679 15.7567 16.9582ZM16.9125 17.8612C17.057 17.6445 17.0028 17.4097 16.7319 17.2471C16.2443 16.9401 15.5039 17.193 15.5039 17.6626C15.5039 17.8973 15.8831 18.1502 16.2443 18.1502C16.4791 18.1502 16.8041 18.0057 16.9125 17.8612Z" fill="#FF007A"/>
</g>
</svg>
