<svg width="25" height="25" viewBox="0 0 25 25" fill="none" xmlns="http://www.w3.org/2000/svg">
<path d="M20.8672 20.6328H4.13281C3.30401 20.6328 2.50916 20.3036 1.9231 19.7175C1.33705 19.1315 1.00781 18.3366 1.00781 17.5078V7.49219C1.00781 6.66339 1.33705 5.86853 1.9231 5.28248C2.50916 4.69643 3.30401 4.36719 4.13281 4.36719H20.8672C21.696 4.36719 22.4908 4.69643 23.0769 5.28248C23.6629 5.86853 23.9922 6.66339 23.9922 7.49219V17.5078C23.9922 18.3366 23.6629 19.1315 23.0769 19.7175C22.4908 20.3036 21.696 20.6328 20.8672 20.6328ZM4.13281 5.14844C3.51121 5.14844 2.91507 5.39537 2.47553 5.83491C2.03599 6.27444 1.78906 6.87059 1.78906 7.49219V17.5078C1.78906 18.1294 2.03599 18.7256 2.47553 19.1651C2.91507 19.6046 3.51121 19.8516 4.13281 19.8516H20.8672C21.4888 19.8516 22.0849 19.6046 22.5245 19.1651C22.964 18.7256 23.2109 18.1294 23.2109 17.5078V7.49219C23.2109 6.87059 22.964 6.27444 22.5245 5.83491C22.0849 5.39537 21.4888 5.14844 20.8672 5.14844H4.13281Z" fill="#222222"/>
<path d="M12.5003 14.6798C11.8223 14.6837 11.1615 14.4671 10.6175 14.0626L1.49246 7.15245C1.44328 7.12577 1.40041 7.08884 1.36674 7.04415C1.33306 6.99947 1.30939 6.94807 1.2973 6.89344C1.28522 6.83881 1.28501 6.78222 1.2967 6.7275C1.30838 6.67279 1.33169 6.62122 1.36503 6.57629C1.39838 6.53136 1.44098 6.49412 1.48997 6.46708C1.53895 6.44005 1.59318 6.42385 1.64897 6.41959C1.70475 6.41533 1.76081 6.4231 1.81333 6.44239C1.86585 6.46167 1.91362 6.49201 1.9534 6.53135L11.0862 13.4259C11.4933 13.7339 11.9898 13.9005 12.5003 13.9005C13.0107 13.9005 13.5072 13.7339 13.9143 13.4259L23.0472 6.53135C23.0877 6.49759 23.1346 6.47238 23.1852 6.45725C23.2357 6.44211 23.2888 6.43737 23.3412 6.44331C23.3936 6.44925 23.4443 6.46574 23.4901 6.49179C23.536 6.51785 23.5761 6.55292 23.6081 6.5949C23.64 6.63687 23.6631 6.68488 23.676 6.73604C23.6889 6.78719 23.6913 6.84042 23.683 6.89252C23.6748 6.94462 23.6561 6.99452 23.628 7.03919C23.6 7.08386 23.5632 7.12239 23.5198 7.15245L14.3831 14.0626C13.839 14.4671 13.1782 14.6837 12.5003 14.6798Z" fill="#222222"/>
<path d="M1.6289 19C1.55047 18.999 1.47416 18.9744 1.40989 18.9295C1.34562 18.8845 1.29637 18.8212 1.26856 18.7479C1.24074 18.6746 1.23564 18.5946 1.25393 18.5183C1.27222 18.442 1.31304 18.373 1.37109 18.3203L8.55468 11.9101C8.6329 11.8412 8.73528 11.8062 8.8393 11.8128C8.94333 11.8194 9.04047 11.8671 9.10937 11.9453C9.17826 12.0235 9.21326 12.1259 9.20667 12.2299C9.20008 12.3339 9.15243 12.4311 9.07421 12.5L1.89062 18.9023C1.8184 18.966 1.72519 19.0008 1.6289 19ZM23.3711 19C23.2748 19.0008 23.1816 18.966 23.1094 18.9023L15.9258 12.5C15.8844 12.4668 15.8503 12.4255 15.8254 12.3787C15.8005 12.3319 15.7854 12.2805 15.781 12.2277C15.7766 12.1748 15.783 12.1216 15.7998 12.0714C15.8166 12.0211 15.8435 11.9747 15.8788 11.9352C15.9141 11.8956 15.9571 11.8637 16.0052 11.8413C16.0533 11.8189 16.1054 11.8065 16.1584 11.8049C16.2114 11.8033 16.2641 11.8124 16.3135 11.8319C16.3628 11.8513 16.4077 11.8806 16.4453 11.9179L23.6289 18.3203C23.706 18.3893 23.7525 18.486 23.7584 18.5892C23.7642 18.6925 23.7289 18.7938 23.6601 18.8711C23.6236 18.9115 23.579 18.9439 23.5293 18.9661C23.4795 18.9883 23.4256 18.9998 23.3711 19Z" fill="#222222"/>
</svg>
