<svg width="25" height="25" viewBox="0 0 25 25" fill="none" xmlns="http://www.w3.org/2000/svg">
<path d="M12.5 2.59766C7.03125 2.59766 2.59766 7.03125 2.59766 12.5C2.59766 17.9688 7.03125 22.4023 12.5 22.4023C17.9688 22.4023 22.4023 17.9688 22.4023 12.5C22.4023 7.03125 17.9688 2.59766 12.5 2.59766ZM12.5 21.4648C7.55859 21.4648 3.53516 17.4414 3.53516 12.5C3.53516 7.55859 7.55859 3.53516 12.5 3.53516C17.4414 3.53516 21.4648 7.55859 21.4648 12.5C21.4648 17.4414 17.4414 21.4648 12.5 21.4648Z" fill="black"/>
<path d="M12.5 14.8633C12.7539 14.8633 12.9688 14.6484 12.9688 14.3945V7.79297C12.9688 7.53906 12.7539 7.32422 12.5 7.32422C12.2461 7.32422 12.0312 7.53906 12.0312 7.79297V14.3945C12.0312 14.6484 12.2461 14.8633 12.5 14.8633ZM12.5 15.5664C11.582 15.5664 11.582 16.9727 12.5 16.9727C13.418 16.9922 13.418 15.5664 12.5 15.5664Z" fill="black"/>
</svg>
