<svg width="29" height="30" viewBox="0 0 29 30" fill="none" xmlns="http://www.w3.org/2000/svg">
<path d="M14.059 1.875C8.8134 1.875 4.33531 5.37914 2.56652 10.3125H4.46887C4.9849 9.11227 5.7022 8.00684 6.60349 7.0452C8.59504 4.92029 11.2428 3.75 14.059 3.75C16.8756 3.75 19.5238 4.92029 21.5155 7.04525C23.5073 9.17021 24.6042 11.9953 24.6042 15C24.6042 18.005 23.5073 20.8301 21.5156 22.955C19.5239 25.0798 16.8757 26.25 14.059 26.25C11.2427 26.25 8.59493 25.0798 6.60343 22.955C5.70209 21.9934 4.98479 20.8879 4.46865 19.6875H2.56641C4.33515 24.6212 8.81329 28.125 14.0591 28.125C20.8534 28.125 26.3617 22.2489 26.3617 15C26.3617 7.75184 20.8534 1.875 14.059 1.875Z" fill="white"/>
<path d="M11.3612 18.9776L12.6039 20.3034L17.5746 15.0001L12.6039 9.69678L11.3612 11.0226L14.2105 14.0626H1.75781V15.9376H14.2105L11.3612 18.9776Z" fill="white"/>
</svg>
