<svg width="25" height="25" viewBox="0 0 25 25" fill="none" xmlns="http://www.w3.org/2000/svg">
<path d="M19.531 15.9554L13.5413 12.4998L19.531 9.04423C19.7799 8.90042 19.865 8.58208 19.7212 8.33317C19.5774 8.08426 19.2591 7.99913 19.0102 8.14294L13.0206 11.5985V4.68734C13.0206 4.39971 12.7874 4.1665 12.4998 4.1665C12.2121 4.1665 11.9789 4.39971 11.9789 4.68734V11.5985L5.98934 8.14294C5.74043 7.99913 5.42209 8.08426 5.27828 8.33317C5.13447 8.58208 5.2196 8.90042 5.46851 9.04423L11.4582 12.4998L5.46851 15.9554C5.21947 16.0991 5.13408 16.4175 5.27777 16.6665C5.37085 16.8279 5.54315 16.9272 5.72943 16.9269C5.82079 16.927 5.9105 16.9028 5.98934 16.8567L11.9789 13.4012V20.3123C11.9789 20.6 12.2121 20.8332 12.4998 20.8332C12.7874 20.8332 13.0206 20.6 13.0206 20.3123V13.4012L19.0102 16.8567C19.2591 17.0005 19.5774 16.9154 19.7212 16.6665C19.865 16.4176 19.7799 16.0993 19.531 15.9554Z" fill="black"/>
</svg>
