<svg width="24" height="25" viewBox="0 0 24 25" fill="none" xmlns="http://www.w3.org/2000/svg">
<path fill-rule="evenodd" clip-rule="evenodd" d="M11.5 1.5625C8.91117 1.5625 6.8125 3.66116 6.8125 6.25C6.8125 8.83883 8.91117 10.9375 11.5 10.9375C14.0888 10.9375 16.1875 8.83883 16.1875 6.25C16.1875 3.66116 14.0888 1.5625 11.5 1.5625ZM8.375 6.25C8.375 4.52411 9.77414 3.125 11.5 3.125C13.2259 3.125 14.625 4.52411 14.625 6.25C14.625 7.97586 13.2259 9.375 11.5 9.375C9.77414 9.375 8.375 7.97586 8.375 6.25Z" fill="black"/>
<path d="M2.12063 22.7395C2.64549 17.8389 6.66338 14.0625 11.5001 14.0625C16.3367 14.0625 20.3546 17.8389 20.8795 22.7395C20.9255 23.1684 21.3105 23.479 21.7395 23.433C22.1685 23.3871 22.4791 23.002 22.4331 22.573C21.8284 16.9269 17.183 12.5 11.5001 12.5C5.81713 12.5 1.17174 16.9269 0.567009 22.573C0.521055 23.002 0.831594 23.3871 1.26062 23.433C1.68963 23.479 2.07467 23.1684 2.12063 22.7395Z" fill="black"/>
</svg>
